<svg xmlns="http://www.w3.org/2000/svg" xmlns:xlink="http://www.w3.org/1999/xlink" width="1000" height="610" viewBox="0 0 1000 610"><defs><clipPath id="b"><rect width="1000" height="610"/></clipPath></defs><g id="a" clip-path="url(#b)"><g transform="translate(-726 -193.037)"><g transform="translate(1418.53 380.695)"><g transform="translate(0 0)"><text transform="translate(41 25)" fill="#fff" font-size="23" font-family="OpenSans-Bold, Open Sans" font-weight="700"><tspan x="-40.963" y="0">Submit</tspan></text></g></g><g transform="translate(813 193.037)"><g transform="translate(0 54.565)"><rect width="139.046" height="262.855" transform="translate(47.439 275.114)" fill="#e0e0e0"/><rect width="139.046" height="262.855" transform="translate(6.174 275.114)" fill="#f5f5f5"/><path d="M234.552,326.305H115.2V284.63H234.552Zm-117.885-1.466H233.085V286.1H116.666Z" transform="translate(-99.568 2.919)" fill="#e0e0e0"/><path d="M141,285.13h45.3v1.041a7.259,7.259,0,0,1-7.259,7.259H148.249a7.259,7.259,0,0,1-7.259-7.259V285.13Z" transform="translate(-87.539 3.153)" fill="#ebebeb"/><path d="M234.552,362.391H115.2V320.73H234.552Zm-117.885-1.466H233.085V322.2H116.666Z" transform="translate(-99.568 19.757)" fill="#e0e0e0"/><path d="M141,321.23h45.3v1.041a7.259,7.259,0,0,1-7.259,7.259H148.249a7.259,7.259,0,0,1-7.259-7.259V321.23Z" transform="translate(-87.539 19.99)" fill="#ebebeb"/><path d="M234.552,398.481H115.2V356.82H234.552Zm-117.885-1.466H233.085V358.286H116.666Z" transform="translate(-99.568 36.59)" fill="#e0e0e0"/><path d="M141,357.334h45.3v1a7.259,7.259,0,0,1-7.259,7.259H148.244A7.259,7.259,0,0,1,141,358.331V357.29Z" transform="translate(-87.535 36.809)" fill="#ebebeb"/><path d="M234.552,434.571H115.2V392.91H234.552ZM116.666,433.1H233.085V394.376H116.666Z" transform="translate(-99.568 53.423)" fill="#e0e0e0"/><path d="M141,393.41h45.3v1.041a7.259,7.259,0,0,1-7.259,7.259H148.249a7.259,7.259,0,0,1-7.259-7.259V393.41Z" transform="translate(-87.539 53.656)" fill="#ebebeb"/><rect width="151.041" height="13.095" transform="translate(0 265.275)" fill="#ebebeb"/><rect width="45.415" height="13.095" transform="translate(151.026 265.275)" fill="#e0e0e0"/><rect width="7.303" height="13.432" transform="translate(6.174 537.969)" fill="#e0e0e0"/><rect width="7.303" height="13.432" transform="translate(51.31 537.969)" fill="#e0e0e0"/><rect width="7.303" height="13.432" transform="translate(133.781 537.969)" fill="#e0e0e0"/><rect width="7.303" height="13.432" transform="translate(175.017 537.969)" fill="#e0e0e0"/><path d="M631.2,244.6c-6.98.161-11.189,8.109-11.555,15.075s1.466,14.092-.161,20.852c-2.17,8.593-9.781,15.045-11.731,23.668-2.346,10.192,3.681,20.339,4.4,30.795.381,5.074-.484,10.265.689,15.207a18.7,18.7,0,0,0,36.66-1.466c1.246-7.889-2.61-16.013-.909-23.829,1.246-5.778,5.426-10.822,5.5-16.732.088-7.024-5.631-12.816-6.98-19.723s1.833-13.858,2.024-20.882c.323-12.611-5.367-22.216-17.949-22.949" transform="translate(129.914 -15.751)" fill="#ebebeb"/><path d="M628.28,267.05a5.881,5.881,0,0,1,0,1.114c0,.792-.117,1.862-.205,3.2-.205,2.845-.5,6.848-.865,11.731-.748,9.928-1.76,23.639-2.786,38.8s-1.877,28.888-2.464,38.816c-.308,4.927-.557,8.931-.733,11.731-.088,1.334-.161,2.4-.22,3.2a5.622,5.622,0,0,1-.132,1.115,11.059,11.059,0,0,1,0-1.129c0-.777,0-1.848.1-3.2.117-2.845.293-6.848.513-11.731.484-9.957,1.246-23.683,2.273-38.845s2.112-28.874,2.933-38.787c.455-4.913.821-8.916,1.085-11.731.132-1.349.249-2.4.323-3.2a9.892,9.892,0,0,1,.176-1.085Z" transform="translate(136.28 -5.28)" fill="#e0e0e0"/><path d="M629.656,373.741h0A22.245,22.245,0,0,0,651.9,351.5V329.25H607.41V351.5A22.246,22.246,0,0,0,629.656,373.741Z" transform="translate(130.006 23.731)" fill="#e0e0e0"/><path d="M607.411,336.855a4.15,4.15,0,0,1,.719.484l1.95,1.466,6.892,5.572h-.381l12.831-7.86h0l.205-.117.205.132,11.937,7.86h-.381l7.552-5.572,2.126-1.466a3.838,3.838,0,0,1,.807-.484,3.8,3.8,0,0,1-.675.645l-2.038,1.657-7.332,5.778-.176.147-.191-.132-12.01-7.772h.381l-12.89,7.743-.205.117-.161-.147c-2.713-2.317-4.986-4.282-6.716-5.778l-1.833-1.642C607.6,337.1,607.382,336.884,607.411,336.855Z" transform="translate(130.006 27.066)" fill="#fff"/><path d="M607.411,333.825a3.274,3.274,0,0,1,.719.484l1.95,1.466,6.892,5.587h-.381l12.831-7.86h0l.205-.132.205.132,11.937,7.875h-.381l7.552-5.572,2.126-1.466a3.162,3.162,0,0,1,.807-.484,3.8,3.8,0,0,1-.675.645l-2.038,1.657-7.332,5.778-.176.147-.191-.132-12.01-7.772h.381l-12.89,7.757-.205.117-.161-.147-6.716-5.778-1.833-1.657C607.6,334.074,607.382,333.854,607.411,333.825Z" transform="translate(130.006 25.653)" fill="#fff"/><path d="M607.411,339.945a3.271,3.271,0,0,1,.719.484l1.95,1.466,6.892,5.587h-.381l12.831-7.86h0l.205-.132.205.132,11.937,7.875h-.381l7.552-5.572,2.126-1.466a3.166,3.166,0,0,1,.807-.484,3.509,3.509,0,0,1-.675.631l-2.038,1.657-7.332,5.792-.176.132-.191-.117-12.01-7.772h.381l-12.89,7.757-.205.117-.161-.147-6.716-5.778-1.833-1.657C607.6,340.238,607.382,339.974,607.411,339.945Z" transform="translate(130.006 28.507)" fill="#fff"/><path d="M649.778,436.22l14.195,40.722h-7.1L632.02,436.22Z" transform="translate(141.485 73.623)" fill="#ebebeb"/><path d="M593.075,436.22,578.88,476.942h7.1l24.856-40.722Z" transform="translate(116.7 73.623)" fill="#ebebeb"/><rect width="113.486" height="113.486" transform="translate(789.474 510.855) rotate(180)" fill="#ebebeb"/><rect width="113.486" height="113.486" transform="translate(825.035 510.855) rotate(180)" fill="#f5f5f5"/><path d="M693.379,463.455h-98.5V365h98.5Zm-97.033-1.466h95.566V366.466H596.346Z" transform="translate(124.162 40.405)" fill="#e0e0e0"/><path d="M691.943,386.025c-32.026-.938-64.42-.689-96.461,0a.4.4,0,0,0,0,.777c32.041.645,64.434.894,96.461,0a.352.352,0,0,0,0-.689Z" transform="translate(124.294 49.925)" fill="#e0e0e0"/><path d="M626.58,377.207a2.772,2.772,0,1,0,2.772-2.757,2.771,2.771,0,0,0-2.772,2.757Z" transform="translate(138.948 44.813)" fill="#ebebeb"/><path d="M653.72,407.442a2.757,2.757,0,1,0,.8-1.959,2.757,2.757,0,0,0-.8,1.959Z" transform="translate(151.606 58.908)" fill="#ebebeb"/><path d="M166.276,245.38,180.354,281.4l-8.755-.044-7.009-22.128Z" transform="translate(-76.532 -15.387)" fill="#e0e0e0"/><path d="M134.5,222.69l-4.839,68.995,49.961,1.041,5.616-70.036Z" transform="translate(-92.824 -25.97)" fill="#ebebeb"/><path d="M137.648,226.587l-4.018,57.425,37.13,1.745,5.191-59.507Z" transform="translate(-90.972 -24.31)" fill="#fafafa"/><path d="M142.891,232.02l-3.021,40.37h20.486l3.622-40.37Z" transform="translate(-88.062 -21.619)" fill="#e0e0e0"/><rect width="161.218" height="158.402" transform="translate(587.71)" fill="#e0e0e0"/><rect width="149.912" height="149.912" transform="translate(593.326 4.326)" fill="#fafafa"/><rect width="48.905" height="48.905" transform="translate(643.83 54.829)" fill="#e0e0e0"/></g><g transform="translate(489.925 246.788)"><rect width="154.516" height="237.618" rx="7.54" transform="translate(0 154.107) rotate(-85.83)" fill="#1361a2"/><path d="M592.694,259.7a16.38,16.38,0,1,1-3.923-11.951,16.395,16.395,0,0,1,3.923,11.951Z" transform="translate(-382.054 -209.159)" fill="#fff"/><path d="M590.037,276.891h-1.261a17.142,17.142,0,1,1,18.345-15.852h0A17.172,17.172,0,0,1,590.037,276.891Zm0-32.8a15.661,15.661,0,1,0,15.617,16.673h0a15.705,15.705,0,0,0-14.488-16.776Z" transform="translate(-376.024 -208.883)" fill="#fff"/><path d="M457.176,287.969l-.968,13.2-1.349-.1.865-11.951-3.094-.22.088-1.2Z" transform="translate(-432.11 -187.876)" fill="#fff"/><path d="M467.322,300.647l-.088,1.2-9.224-.674v-.953l5.866-4.957c1.584-1.349,1.936-2.214,1.994-3.123.117-1.466-.88-2.537-2.933-2.684a4.487,4.487,0,0,0-3.7,1.2l-.909-.895a5.866,5.866,0,0,1,4.8-1.466c2.669.191,4.267,1.672,4.106,3.871-.088,1.261-.572,2.361-2.464,3.959l-4.8,4.062Z" transform="translate(-429.601 -187.621)" fill="#fff"/><path d="M477.548,299.04l-2.625-.191-.249,3.461-1.393-.117.249-3.446-7.42-.543.073-.982,7.6-8.212,1.466.117-7.332,7.992,5.7.425.22-3.05,1.32.1-.22,3.035,2.742.161Z" transform="translate(-425.823 -187.261)" fill="#fff"/><path d="M491.289,300.036l-2.625-.191-.249,3.461-1.364-.1.264-3.446-7.435-.543.073-.983,7.611-8.212,1.466.117-7.332,8.007,5.7.411.22-3.05,1.32.1-.22,3.036,2.625.191Z" transform="translate(-419.401 -186.789)" fill="#fff"/><path d="M498.6,300.274c-.176,2.244-1.862,3.871-5.074,3.637a6.8,6.8,0,0,1-4.59-2.024l.733-1.027a5.777,5.777,0,0,0,3.93,1.818c2.244.161,3.5-.85,3.622-2.449s-.851-2.815-4.194-3.065l-2.8-.191,1.144-6.555,7.2.528-.088,1.2-6.012-.44-.748,4.165,1.686.117C497.372,296.286,498.765,297.957,498.6,300.274Z" transform="translate(-415.175 -186.603)" fill="#fff"/><path d="M507.5,300.816a4.121,4.121,0,0,1-4.8,3.71c-3.49-.249-5.22-2.816-4.912-6.965.323-4.4,2.933-6.628,6.511-6.364a6.159,6.159,0,0,1,3.065.939l-.616,1.056a4.693,4.693,0,0,0-2.522-.807c-2.83-.205-4.8,1.466-5.044,5.059v1.071a4.208,4.208,0,0,1,4.194-1.965,4,4,0,0,1,4.121,4.267Zm-1.349,0c.132-1.73-1.07-2.933-3.094-3.079a3.05,3.05,0,0,0-3.593,2.625c-.1,1.466,1,2.933,3.27,3.079a2.933,2.933,0,0,0,3.417-2.684Z" transform="translate(-411.063 -186.25)" fill="#fff"/><path d="M519.734,301.94c-.161,2.2-1.877,3.769-5.044,3.534a6.848,6.848,0,0,1-4.619-2.024l.733-1.026a5.866,5.866,0,0,0,3.974,1.818c2.17.161,3.446-.777,3.563-2.4s-.909-2.7-3.358-2.933h-.938l.073-1,3.974-4.311-6.716-.484.088-1.2,8.446.616v.953l-4.077,4.429C518.59,298.245,519.895,299.829,519.734,301.94Z" transform="translate(-405.32 -185.908)" fill="#fff"/><path d="M528.768,302.367a4.121,4.121,0,0,1-4.8,3.71c-3.49-.249-5.206-2.816-4.912-6.965.323-4.473,2.933-6.628,6.511-6.364a6.012,6.012,0,0,1,3.065.939l-.616,1.056a4.693,4.693,0,0,0-2.522-.806c-2.83-.205-4.781,1.466-5.044,5.044v1.085a4.209,4.209,0,0,1,4.194-1.965,4,4,0,0,1,4.121,4.267Zm-1.349,0c.132-1.73-1.07-2.933-3.094-3.079a3.05,3.05,0,0,0-3.593,2.625c-.1,1.466,1,2.933,3.27,3.079a2.933,2.933,0,0,0,3.417-2.684Z" transform="translate(-401.141 -185.528)" fill="#fff"/><path d="M537.524,293.834v.953l-6.423,11.8-1.466-.117,6.276-11.555-6.76-.484-.176,2.464-1.334-.1.264-3.666Z" transform="translate(-397.125 -185.339)" fill="#fff"/><path d="M550.358,294.8l-.073.953-6.394,11.731-1.466-.1,6.291-11.555-6.76-.5-.191,2.464-1.334-.1.279-3.666Z" transform="translate(-391.159 -184.924)" fill="#fff"/><path d="M558.8,304.839c-.176,2.332-2.244,3.637-5.382,3.4s-4.971-1.818-4.81-4.15a3.3,3.3,0,0,1,2.772-3.05,2.933,2.933,0,0,1-1.848-3.035c.147-2.141,2.068-3.343,4.854-3.138s4.546,1.672,4.4,3.813a2.933,2.933,0,0,1-2.317,2.742A3.314,3.314,0,0,1,558.8,304.839Zm-1.393-.117c.117-1.628-1.2-2.742-3.534-2.933s-3.769.748-3.886,2.361,1.173,2.742,3.5,2.933,3.8-.733,3.915-2.361Zm-3.446-3.974c2.038.147,3.329-.689,3.446-2.112s-1.129-2.478-3.109-2.625-3.314.66-3.417,2.126,1.027,2.464,3.08,2.61Z" transform="translate(-387.347 -184.539)" fill="#fff"/><path d="M567.511,302.464c-.323,4.4-2.933,6.628-6.511,6.364a6.2,6.2,0,0,1-3.065-.939l.631-1.056a4.634,4.634,0,0,0,2.508.807c2.83.205,4.8-1.466,5.059-5.045v-1.085a4.194,4.194,0,0,1-4.179,1.965,3.989,3.989,0,0,1-4.15-4.267,4.106,4.106,0,0,1,4.78-3.71C566.089,295.748,567.819,298.314,567.511,302.464Zm-1.672-2.742c.117-1.466-1-2.933-3.27-3.079a2.933,2.933,0,0,0-3.417,2.625c-.132,1.73,1.07,2.933,3.094,3.079a3.05,3.05,0,0,0,3.593-2.625Z" transform="translate(-383.061 -184.261)" fill="#fff"/><path d="M575.286,296.573l-.953,13.2-1.364-.1.88-11.951-3.109-.235.088-1.2Z" transform="translate(-377.022 -183.87)" fill="#fff"/><path d="M585.432,309.282l-.088,1.2-9.224-.675v-.968l5.866-4.956c1.6-1.349,1.936-2.214,2.009-3.109.117-1.466-.895-2.552-2.933-2.7a4.546,4.546,0,0,0-3.7,1.2l-.895-.895a5.866,5.866,0,0,1,4.8-1.54c2.669.205,4.253,1.672,4.106,3.871a5.47,5.47,0,0,1-2.464,3.959l-4.707,4.15Z" transform="translate(-374.513 -183.63)" fill="#fff"/><path d="M593.728,307.349c-.161,2.2-1.892,3.769-5.059,3.534a6.8,6.8,0,0,1-4.619-2.038l.748-1.012a5.867,5.867,0,0,0,3.959,1.818c2.185.147,3.461-.777,3.578-2.4s-.924-2.7-3.358-2.933l-.939-.073.073-.982,3.974-4.311-6.731-.484.088-1.2,8.461.616v.953l-4.062,4.4C592.57,303.654,593.875,305.237,593.728,307.349Z" transform="translate(-370.814 -183.413)" fill="#fff"/><rect width="5.734" height="105.655" transform="matrix(0.073, -0.997, 0.997, 0.073, 120.371, 135.791)" fill="#fff"/><rect width="5.734" height="54.184" transform="matrix(0.073, -0.997, 0.997, 0.073, 170.871, 150.932)" fill="#fff"/><g transform="translate(17.759 55.179)" opacity="0.5"><rect width="44.33" height="33.112" rx="4.96" transform="translate(2.408 0) rotate(4.17)"/></g><path d="M451.22,277.9l.161-2.112,22.773,1.657a4.781,4.781,0,0,0,.689-9.532l-22.773-1.657.161-2.126,22.759,1.657a6.907,6.907,0,1,1-1,13.77Z" transform="translate(-432.768 -198.865)" fill="#1361a2"/><rect width="2.126" height="15.661" transform="translate(47.48 75.283) rotate(-85.78)" fill="#1361a2"/><rect width="114.014" height="9.781" transform="translate(27.392 28.371) rotate(4.17)" fill="#fff"/></g><g transform="translate(299.911 0)"><path d="M339.68,197.248V51.78l9.972,8.051,8.139-8.051,8.622,7.1,8.139-7.1,8.153,7.581,9.81-7.581,7.185,7.1,7.9-7.1,7.9,7.816,9.576-7.816,8.153,7.581,8.622-7.581,9.092,7.816,8.139-7.816,7.9,6.863,8.622-6.863,9.106,6.863,7.9-6.863V197.248Z" transform="translate(-294.778 -51.12)" fill="#fafafa"/><path d="M339.745,197.488h11l30.985-.088,110.964-.161-.323.323V52.093l.631.293-7.9,6.848-.235.205-.249-.176-9.165-6.951h.469l-2.537,2.009-6.086,4.839-.249.205-.235-.22-7.9-6.833h.513l-8.139,7.816-.249.235-.264-.22-9.092-7.831h.5l-8.623,7.567-.264.22-.249-.22L424.9,52.312h.484l-9.576,7.816-.264.205-.235-.235c-2.654-2.625-5.279-5.235-7.9-7.816h.513l-7.9,7.1-.264.22-.235-.235q-3.578-3.622-7.185-7.053h.469l-9.825,7.567-.235.176-.22-.205c-2.757-2.566-5.455-5.088-8.139-7.567h.469l-8.139,7.1-.22.191-.235-.191-8.608-7.068h.44c-2.786,2.772-5.484,5.426-8.139,8.051l-.22.205-.22-.176-9.972-8.065.528-.249c0,43.816-.132,80.14-.176,105.582v29.622c0-6.8,0-16.746-.088-29.416,0-25.442-.088-61.839-.161-105.729v-.66l.528.411,9.972,8.051h-.44l8.139-8.051.22-.22.235.205,8.622,7.083h-.44l8.139-7.1.235-.205.235.22,8.139,7.567h-.455l9.81-7.581.249-.191.235.22,7.185,7.083h-.5l7.889-7.1.264-.235.249.235,7.9,7.816h-.5l9.576-7.816.249-.205.249.235,8.139,7.567h-.5l8.608-7.567.249-.22.249.22,9.106,7.8h-.513l8.139-7.816.249-.235.264.235c2.625,2.258,5.25,4.546,7.9,6.848h-.484l6.086-4.839,2.537-2.009.235-.191.235.176,9.092,6.863h-.469l7.9-6.848.631-.557V197.957h-.572L381.553,197.8l-30.941-.308H339.745Z" transform="translate(-294.843 -51.33)" fill="#263238"/><path d="M414.2,92.121c0,.22-14.268.4-31.851.4s-31.836-.176-31.836-.4,14.254-.381,31.836-.381S414.2,91.975,414.2,92.121Z" transform="translate(-289.727 -32.482)" fill="#263238"/><path d="M414.2,103.481c0,.22-14.268.381-31.851.381s-31.836-.161-31.836-.381,14.254-.381,31.836-.381S414.2,103.276,414.2,103.481Z" transform="translate(-289.727 -27.184)" fill="#263238"/><path d="M414.2,114.8c0,.205-14.268.381-31.851.381s-31.836-.176-31.836-.381,14.254-.381,31.836-.381S414.2,114.6,414.2,114.8Z" transform="translate(-289.727 -21.904)" fill="#263238"/><path d="M414.2,126.121c0,.205-14.268.381-31.851.381s-31.836-.176-31.836-.381,14.254-.381,31.836-.381S414.2,125.9,414.2,126.121Z" transform="translate(-289.727 -16.624)" fill="#263238"/><path d="M436.736,91.931a159.235,159.235,0,0,1-22,0,159.229,159.229,0,0,1,22,0Z" transform="translate(-259.769 -32.57)" fill="#263238"/><path d="M436.736,103.481a159.235,159.235,0,0,1-22,0,159.227,159.227,0,0,1,22,0Z" transform="translate(-259.769 -27.183)" fill="#263238"/><path d="M436.736,115.031a159.233,159.233,0,0,1-22,0,159.24,159.24,0,0,1,22,0Z" transform="translate(-259.769 -21.796)" fill="#263238"/><path d="M436.736,126.581a159.242,159.242,0,0,1-22,0,159.235,159.235,0,0,1,22,0Z" transform="translate(-259.769 -16.409)" fill="#263238"/><path d="M339.75,141.316v-4.6l152.493-6.922v12.23Z" transform="translate(-294.745 -14.735)" fill="#ebebeb"/><path d="M508.053,620.616l-163.535-.748a35.619,35.619,0,0,1-35.458-35.781l1.73-410a35.634,35.634,0,0,1,35.8-35.473l163.535.763a35.619,35.619,0,0,1,35.458,35.766l-1.73,410A35.619,35.619,0,0,1,508.053,620.616Z" transform="translate(-309.06 -10.617)" fill="#263238"/><path d="M506.429,149.019l-31.7-.147a7.875,7.875,0,0,0-7.743,8.007v5.748a7.889,7.889,0,0,1-7.743,8.021l-61.795-.293a7.889,7.889,0,0,1-7.669-8.08v-5.748a7.9,7.9,0,0,0-7.669-8.095H370.947L343.2,148.3a24.929,24.929,0,0,0-25.061,24.841l-1.7,400.185a24.929,24.929,0,0,0,24.87,25.017l163.212.748a24.929,24.929,0,0,0,25.061-24.841l1.774-400.185a24.929,24.929,0,0,0-24.929-25.046Z" transform="translate(-305.618 -6.102)" fill="#fafafa"/></g><g transform="translate(70.32 69.039)"><path d="M153.31,161.671s-.073-.308-.161-.939-.205-1.584-.381-2.8c0-.6-.205-1.29-.235-2.053s0-1.6,0-2.508-.088-1.892,0-2.933.161-2.141.249-3.314a53.231,53.231,0,0,1,17.6-34.857l2.4-2.112c.865-.66,1.76-1.276,2.654-1.921a55.489,55.489,0,0,1,26.689-9.678c1.276-.147,2.581-.088,3.871-.147h1.965c.66,0,1.32.1,1.98.147a51.427,51.427,0,0,1,15.881,3.475,54.14,54.14,0,0,1,26.6,21.908,55.167,55.167,0,0,1,7.669,36.132c-.117.821-.264,1.642-.411,2.464v-.293l17.26,23.991.513.733-.88-.147L250.9,182.861l.352-.161A53.759,53.759,0,0,1,219.489,205a43.161,43.161,0,0,1-5.983,1.085l-2.933.352c-.982.117-1.965,0-2.933.1a53.641,53.641,0,0,1-21.395-3.886,54.873,54.873,0,0,1-15.837-9.869l-3.021-2.933-2.581-2.933a27.161,27.161,0,0,1-2.229-2.933,28.321,28.321,0,0,1-1.95-2.859,55.239,55.239,0,0,1-4.9-10.265l-1.276-3.9c-.249-1.158-.455-2.126-.631-2.933l-.367-1.789c-.073-.4-.1-.616-.1-.616l.161.6.44,1.774c.176.792.411,1.76.675,2.933l1.32,3.857a55.2,55.2,0,0,0,4.971,10.118c.543.968,1.29,1.848,1.95,2.83a30.8,30.8,0,0,0,2.244,2.933l2.581,2.933,2.933,2.816a54.667,54.667,0,0,0,15.749,9.708,53.2,53.2,0,0,0,21.175,3.769,28.279,28.279,0,0,0,2.933-.1l2.933-.367a39.852,39.852,0,0,0,5.866-1.1,53.245,53.245,0,0,0,11.731-4.4,53.934,53.934,0,0,0,19.665-17.6l.132-.191h.235l25.486,3.945-.367.587-17.348-24.035-.1-.132v-.161q.22-1.2.4-2.42a54.257,54.257,0,0,0-7.537-35.634,53.582,53.582,0,0,0-26.22-21.659,51.074,51.074,0,0,0-15.676-3.446c-.66,0-1.305-.132-1.95-.147h-1.936a37.085,37.085,0,0,0-3.842.132,55.061,55.061,0,0,0-7.332,1.158,53.231,53.231,0,0,0-13.315,4.825,52.421,52.421,0,0,0-5.7,3.5c-.88.645-1.774,1.246-2.625,1.906l-2.39,2.082a52.938,52.938,0,0,0-13.2,18.052,53.889,53.889,0,0,0-4.4,16.424c-.1,1.158-.191,2.258-.279,3.3s0,2.009,0,2.933v2.493a18.644,18.644,0,0,0,.205,2.053c.132,1.217.235,2.141.308,2.8S153.31,161.671,153.31,161.671Z" transform="translate(-152.493 -98.41)" fill="#263238"/><path d="M206.288,126.08a3.622,3.622,0,0,1-.279,1.466,13.873,13.873,0,0,1-1.716,3.5,12.729,12.729,0,0,1-4.253,3.974,13.96,13.96,0,0,1-6.907,1.745,14.239,14.239,0,0,1-6.936-1.6,11.261,11.261,0,0,1-4.209-4.018,12.714,12.714,0,0,1-1.554-3.593,3.387,3.387,0,0,1-.191-1.466,19.8,19.8,0,0,0,2.185,4.707,11.409,11.409,0,0,0,4.091,3.71,14.063,14.063,0,0,0,6.6,1.466,13.579,13.579,0,0,0,6.584-1.6,12.685,12.685,0,0,0,4.15-3.666A23.8,23.8,0,0,0,206.288,126.08Z" transform="translate(-139.556 -85.504)" fill="#fff"/></g></g><g transform="translate(913.742 289.043)"><g transform="translate(0 0)"><path d="M338.56,197.451l-19.146-6.57-18.934,6.484c-2.418,1.088-4.541,1.746-4.541,3.9v10.732a39.225,39.225,0,0,0,6.219,21.371A38.41,38.41,0,0,0,319.6,248.085c7.718-2.4,13.506-8.82,17.075-14.3a39.229,39.229,0,0,0,6.251-21.371v-9.65C342.927,199.688,341.217,198.188,338.56,197.451Z" transform="translate(-295.939 -190.855)" fill="#d63d5e"/><g transform="translate(0 0.049)" opacity="0.3"><path d="M319.6,241.855a30.453,30.453,0,0,1-13.8-11.74,31.039,31.039,0,0,1-4.946-16.9v-7.5c0-1.709,1.08-3.307,3.216-4.259l15.345-5.483V190.92l-18.94,6.46c-1.987.83-4.541,1.746-4.541,3.9v10.732a39.225,39.225,0,0,0,6.219,21.371A38.411,38.411,0,0,0,319.6,248.1Z" transform="translate(-295.939 -190.92)"/></g><g transform="translate(23.469 0)" opacity="0.4"><path d="M332.623,248.051a23.813,23.813,0,0,0,3.762-1.537,33.731,33.731,0,0,0,7.988-5.987,41.123,41.123,0,0,0,5.537-7.111,37.719,37.719,0,0,0,6.039-21.58v-8.857c0-4.413-2.38-4.739-4.373-5.569L332.43,190.84V195.9l15.525,5.575c2.135.953,3.216,2.551,3.216,4.253v7.529a31.016,31.016,0,0,1-4.946,16.89,29.8,29.8,0,0,1-13.615,11.678Z" transform="translate(-332.43 -190.84)"/></g><path d="M308.166,220.193a5.317,5.317,0,0,1-.289-1.487,24.2,24.2,0,0,1-.154-3.645,19,19,0,0,1,.135-2,4.15,4.15,0,0,1,.431-1.617,1.851,1.851,0,0,1,.836-.805c.264-.117.424-.111.424-.092a2.1,2.1,0,0,0-1.048,1,4.328,4.328,0,0,0-.335,1.543c-.051.615-.09,1.285-.109,1.991-.045,1.407,0,2.686.058,3.614a9.209,9.209,0,0,1,.052,1.506Z" transform="translate(-300.139 -198.429)" fill="#fff"/><path d="M308.746,232.6c-.09,0-.174-.436-.186-.983s.058-.99.148-.99.174.436.187.983S308.842,232.6,308.746,232.6Z" transform="translate(-300.442 -206.173)" fill="#fff"/></g><g transform="translate(14.476 26.939) rotate(-45)"><rect width="3.191" height="9.574" transform="translate(0 0)" fill="#fff"/><rect width="15.957" height="3.191" transform="translate(0 6.383)" fill="#fff"/></g></g><g transform="translate(1141.049 373.968)"><path d="M275.41,83.723c0,.108-4.043.217-9.049.265s-9.061,0-9.061-.12,4.055-.217,9.061-.265S275.41,83.615,275.41,83.723Z" transform="translate(-100.889 -83.223)" fill="#263238"/><path d="M275.45,87.573c0,.108-4.055.229-9.061.265s-9.049,0-9.049-.12,4.043-.217,9.049-.265S275.45,87.465,275.45,87.573Z" transform="translate(-100.881 -82.44)" fill="#263238"/><path d="M275.48,91.423c0,.108-4.055.229-9.061.265s-9.049,0-9.049-.12,4.043-.217,9.049-.265S275.48,91.315,275.48,91.423Z" transform="translate(-100.875 -81.657)" fill="#263238"/><path d="M135.5,98.489h1.42l3.863-.084-.108.108V94.085a1.48,1.48,0,0,1,1.3-1.2h1.841a1.492,1.492,0,0,1,1.276,1.492v4.091l-.181-.18h4.813l-.18.18V90.908a1.54,1.54,0,0,0-.686-1.2l-2.13-2.106-2.058-2.034-1-.975a2.274,2.274,0,0,0-1.011-.758,1.288,1.288,0,0,0-1.119.217c-.289.253-.6.6-.9.89l-1.757,1.612c-1.1,1.143-2.238,2.19-3.081,3.177a3.442,3.442,0,0,0-.241,1.817v6.9a3.409,3.409,0,0,1,0-.59V96.107c0-.7,0-1.721-.06-2.78v-2.72a1.973,1.973,0,0,1,.265-1.023c.9-1.107,1.973-2.082,3.093-3.261l1.733-1.781c.313-.3.566-.6.939-.927a1.661,1.661,0,0,1,1.42-.277,2.623,2.623,0,0,1,1.2.83l1,.987,2.07,2.022,2.13,2.094a3.756,3.756,0,0,1,.554.59,1.684,1.684,0,0,1,.253.83v7.894H144.97V94.314a1.2,1.2,0,0,0-.987-1.2h-1.769a1.2,1.2,0,0,0-1.047.951v4.525h-5.054A1.588,1.588,0,0,1,135.5,98.489Z" transform="translate(-125.656 -83.284)" fill="#263238"/><path d="M221.207,120.847a16.738,16.738,0,1,1-4.864-11.906A16.738,16.738,0,0,1,221.207,120.847Z" transform="translate(-115.035 -79.072)" fill="#263238"/><g transform="translate(72.851 31.655)" opacity="0.4"><path d="M209.592,109.927v12.9h-21.5s-1.444-7.978,2.936-13.237Z" transform="translate(-187.861 -109.59)" fill="#455a64"/></g><path d="M200.859,116.108a4.187,4.187,0,1,1-1.231-2.965A4.2,4.2,0,0,1,200.859,116.108Z" transform="translate(-114.073 -77.462)" fill="#263238"/><path d="M207.456,126.592a5.126,5.126,0,1,1,5.126-5.126,5.126,5.126,0,0,1-5.126,5.126Zm0-8.423a3.225,3.225,0,1,1,0,.048Z" transform="translate(-112.067 -76.563)" fill="#008ad8"/><path d="M196.19,115.12V128.8h19.783a16,16,0,0,0,3.165-13.682Z" transform="translate(-113.315 -76.811)" fill="#fff"/><path d="M211.489,121.508a4.2,4.2,0,1,1-4.188-4.188A4.2,4.2,0,0,1,211.489,121.508Z" transform="translate(-111.912 -76.364)" fill="#263238"/><rect width="105.774" height="32.31" rx="13.42" transform="translate(36.606 315.221)" fill="#008ad8"/><path d="M182.994,357.53c0,1.757-1.276,2.828-3.381,2.828h-2.226v2.611h-.866V354.69h3.093C181.718,354.69,182.994,355.749,182.994,357.53Zm-.866,0c0-1.324-.878-2.082-2.539-2.082h-2.2v4.14h2.2C181.249,359.588,182.128,358.829,182.128,357.53Z" transform="translate(-117.315 -28.097)" fill="#fff"/><path d="M188.072,358.771v3.863h-.806v-.975a2.335,2.335,0,0,1-2.142,1.035c-1.408,0-2.274-.734-2.274-1.8s.614-1.769,2.407-1.769h1.974v-.373c0-1.071-.6-1.648-1.769-1.648a3.177,3.177,0,0,0-2.07.734l-.373-.626a3.9,3.9,0,0,1,2.527-.842,2.214,2.214,0,0,1,2.527,2.407Zm-.842,2v-1.023h-1.949c-1.2,0-1.6.469-1.6,1.119s.578,1.2,1.576,1.2a2,2,0,0,0,1.974-1.324Z" transform="translate(-116.027 -27.761)" fill="#fff"/><path d="M194.461,356.4l-3.1,6.967c-.529,1.2-1.2,1.612-2.07,1.612a2.13,2.13,0,0,1-1.516-.566l.385-.638a1.553,1.553,0,0,0,1.143.481c.554,0,.927-.265,1.288-1.047l.265-.6-2.8-6.209h.879l2.346,5.283,2.335-5.283Z" transform="translate(-115.027 -27.749)" fill="#fff"/><path d="M208.013,360.594c0,1.4-1.011,2.407-3.008,2.407a4.3,4.3,0,0,1-2.984-1.059l.409-.686a3.611,3.611,0,0,0,2.575.963c1.372,0,2.13-.638,2.13-1.673s-.7-1.637-2.238-1.637h-.59v-.626l2.286-2.876h-4.236v-.758h5.331v.6l-2.346,2.948C207.074,358.344,208.013,359.271,208.013,360.594Z" transform="translate(-112.13 -28.105)" fill="#fff"/><path d="M213.528,360.538c0,1.408-.975,2.5-3.008,2.5a4.26,4.26,0,0,1-2.96-1.059l.409-.686a3.538,3.538,0,0,0,2.539.963c1.408,0,2.154-.686,2.154-1.7s-.662-1.721-2.768-1.721h-1.8l.421-4.151h4.537v.758h-3.754l-.277,2.635h1.059C212.59,358.083,213.528,359.07,213.528,360.538Z" transform="translate(-111.003 -28.097)" fill="#fff"/><path d="M213.43,361.188a.614.614,0,0,1,.626-.638.638.638,0,0,1,.638.638.65.65,0,0,1-.638.65A.638.638,0,0,1,213.43,361.188Z" transform="translate(-109.81 -26.906)" fill="#fff"/><path d="M215.39,358.842c0-2.635,1.384-4.212,3.309-4.212s3.309,1.576,3.309,4.212-1.4,4.212-3.309,4.212S215.39,361.477,215.39,358.842Zm5.74,0c0-2.214-.987-3.43-2.407-3.43s-2.407,1.2-2.407,3.43,1,3.43,2.407,3.43S221.13,361.092,221.13,358.842Z" transform="translate(-109.411 -28.11)" fill="#fff"/><path d="M221.91,358.842c0-2.635,1.384-4.212,3.3-4.212s3.309,1.576,3.309,4.212-1.4,4.212-3.309,4.212S221.91,361.477,221.91,358.842Zm5.728,0c0-2.214-.987-3.43-2.407-3.43s-2.407,1.2-2.407,3.43,1,3.43,2.407,3.43S227.638,361.092,227.638,358.842Z" transform="translate(-108.086 -28.11)" fill="#fff"/><path d="M306.6,230.4c0,.168-39.217.313-87.567.313s-87.579-.144-87.579-.313,39.2-.313,87.579-.313S306.6,230.234,306.6,230.4Z" transform="translate(-126.479 -53.433)" fill="#e0e0e0"/><path d="M303.226,294.383c0,.181-39.217.313-87.567.313s-87.579-.132-87.579-.313,39.2-.313,87.579-.313S303.226,294.214,303.226,294.383Z" transform="translate(-127.164 -40.424)" fill="#263238"/><path d="M303.226,329.683c0,.168-39.217.313-87.567.313s-87.579-.144-87.579-.313,39.2-.313,87.579-.313S303.226,329.5,303.226,329.683Z" transform="translate(-127.164 -33.245)" fill="#263238"/><path d="M195.858,320.922c0,1.889-1.42,3.514-4.428,3.514a7.076,7.076,0,0,1-4.2-1.288l.89-1.624a5.222,5.222,0,0,0,3.285,1.107c1.48,0,2.407-.65,2.407-1.7s-.734-1.661-2.407-1.661h-1.023v-1.468l2.539-3.02h-5.078V313.04h7.533v1.384l-2.72,3.237a3.177,3.177,0,0,1,3.2,3.261Z" transform="translate(-115.137 -36.566)" fill="#263238"/><path d="M203.62,320.827c0,1.974-1.42,3.61-4.428,3.61a7.063,7.063,0,0,1-4.212-1.288l.878-1.625a5.306,5.306,0,0,0,3.3,1.107c1.492,0,2.407-.65,2.407-1.709s-.686-1.745-3.008-1.745h-2.708l.578-6.089h6.582v1.745h-4.813l-.241,2.587h1.071C202.3,317.41,203.62,318.842,203.62,320.827Z" transform="translate(-113.562 -36.556)" fill="#263238"/><path d="M203.1,321.592a1.312,1.312,0,1,1,1.312,1.312A1.312,1.312,0,0,1,203.1,321.592Z" transform="translate(-111.91 -35.094)" fill="#263238"/><path d="M206.23,318.7c0-3.682,2.022-5.764,4.681-5.764s4.681,2.082,4.681,5.764-2.01,5.752-4.681,5.752S206.23,322.386,206.23,318.7Zm7.22,0c0-2.707-1.059-3.947-2.587-3.947s-2.575,1.2-2.575,3.947,1.047,3.947,2.575,3.947,2.635-1.216,2.635-3.947Z" transform="translate(-111.274 -36.587)" fill="#263238"/><path d="M215.17,318.7c0-3.682,2.022-5.764,4.669-5.764s4.693,2.082,4.693,5.764-2.022,5.752-4.693,5.752S215.17,322.386,215.17,318.7Zm7.22,0c0-2.707-1.059-3.947-2.6-3.947s-2.563,1.2-2.563,3.947,1.047,3.947,2.563,3.947,2.647-1.216,2.647-3.947Z" transform="translate(-109.456 -36.587)" fill="#263238"/><path d="M133.51,244.42v5.511a.686.686,0,0,0,.686.71H145.9a.7.7,0,0,0,.7-.71v-5.5" transform="translate(-126.06 -50.519)" fill="#263238"/><path d="M133.511,243.31h12.912s0-1.54-1.107-1.54h-10.83S133.415,241.866,133.511,243.31Z" transform="translate(-126.061 -51.058)" fill="#263238"/><path d="M138.308,248.319c0,.53-.626.951-1.408.951s-1.42-.421-1.42-.951.638-.939,1.42-.939S138.308,247.8,138.308,248.319Z" transform="translate(-125.66 -49.917)" fill="#263238"/><path d="M149.44,246.577a2.407,2.407,0,0,1,2.479-2.407,2.25,2.25,0,0,1,1.721.7l-.313.325a1.817,1.817,0,0,0-1.4-.578,1.986,1.986,0,0,0,0,3.971,1.853,1.853,0,0,0,1.4-.566l.313.313a2.262,2.262,0,0,1-1.733.71,2.407,2.407,0,0,1-2.467-2.467Z" transform="translate(-122.821 -50.571)" fill="#263238"/><path d="M156.422,246.548v2.238h-.469v-.566a1.287,1.287,0,0,1-1.2.59c-.806,0-1.3-.421-1.3-1.047s.349-1.023,1.372-1.023h1.131v-.217a.878.878,0,0,0-1.011-.951,1.83,1.83,0,0,0-1.2.421l-.217-.361a2.262,2.262,0,0,1,1.444-.481,1.275,1.275,0,0,1,1.456,1.4Zm-.481,1.2v-.59h-1.119c-.686,0-.915.265-.915.638s.337.686.9.686a1.2,1.2,0,0,0,1.131-.782Z" transform="translate(-122.006 -50.373)" fill="#263238"/><path d="M158.793,245.151v.469h-.12a1.156,1.156,0,0,0-1.2,1.324v1.841H157v-3.61h.457v.71A1.336,1.336,0,0,1,158.793,245.151Z" transform="translate(-121.284 -50.372)" fill="#263238"/><path d="M162.438,243.94v5.09h-.457v-.722a1.516,1.516,0,0,1-1.372.746,1.829,1.829,0,0,1,0-3.61,1.54,1.54,0,0,1,1.348.71v-2.166Zm-.469,3.285a1.312,1.312,0,1,0-.352.995A1.324,1.324,0,0,0,161.969,247.225Z" transform="translate(-120.862 -50.617)" fill="#263238"/><path d="M207.86,289.384a7.218,7.218,0,0,0,2.106-.457,5.872,5.872,0,0,0,3.61-4.6,13.646,13.646,0,0,0,.06-2.13v-7.786c0-1.925,0-4.019-.072-6.161a5.764,5.764,0,0,0-4.127-4.813,14.44,14.44,0,0,0-3.61-.216H133.638a5.644,5.644,0,0,0-4.512,2.262,5.439,5.439,0,0,0-1.035,2.407,17.331,17.331,0,0,0-.108,2.647v13.249a5.5,5.5,0,0,0,.71,2.334,5.752,5.752,0,0,0,3.791,2.756,13.5,13.5,0,0,0,2.407.12h7.352l34.139.072,23.008.1h7.882a4.718,4.718,0,0,1,.554,0h-8.435l-23.008.108-34.139.06h-7.352a13.329,13.329,0,0,1-2.563-.12,6.317,6.317,0,0,1-4.2-3.056,6.017,6.017,0,0,1-.794-2.575v-13.3a16.724,16.724,0,0,1,.12-2.768,6.017,6.017,0,0,1,1.143-2.611,6.318,6.318,0,0,1,5.018-2.5H205.8a14.125,14.125,0,0,1,3.766.253,6.137,6.137,0,0,1,4.392,5.15c.108,2.238,0,4.272,0,6.209V281.8a14.225,14.225,0,0,1-.1,2.166,6.017,6.017,0,0,1-1.625,3.225,5.776,5.776,0,0,1-2.226,1.456,5.947,5.947,0,0,1-1.6.349Z" transform="translate(-127.319 -46.868)" fill="#263238"/><path d="M284.523,289.384a7.378,7.378,0,0,0,2.118-.457,5.861,5.861,0,0,0,2.13-1.456,5.764,5.764,0,0,0,1.516-3.141,13.639,13.639,0,0,0,.06-2.13v-7.786c0-1.925,0-4.019-.072-6.161a5.764,5.764,0,0,0-4.127-4.813,14.436,14.436,0,0,0-3.61-.217H210.349a5.643,5.643,0,0,0-4.513,2.262,5.439,5.439,0,0,0-1.035,2.407,17.329,17.329,0,0,0-.108,2.647v13.249a5.5,5.5,0,0,0,.71,2.334,5.752,5.752,0,0,0,3.79,2.756,13.5,13.5,0,0,0,2.407.12h7.364l34.127.072,23.008.1h7.882a4.731,4.731,0,0,1,.554,0H276.1l-23.008.108-34.127.06H211.6a13.328,13.328,0,0,1-2.563-.12,6.318,6.318,0,0,1-4.2-3.056,6.138,6.138,0,0,1-.794-2.575v-13.3a15.471,15.471,0,0,1,.108-2.768,6.209,6.209,0,0,1,1.2-2.611,6.318,6.318,0,0,1,5.018-2.5h72.188a14.092,14.092,0,0,1,3.766.253,6.173,6.173,0,0,1,4.4,5.15c.1,2.238,0,4.272,0,6.209V281.8a14.214,14.214,0,0,1-.1,2.166,6.016,6.016,0,0,1-1.624,3.225,5.776,5.776,0,0,1-2.226,1.456A6.024,6.024,0,0,1,285.2,289Z" transform="translate(-111.722 -46.868)" fill="#263238"/><path d="M303.226,141.543c0,.181-39.217.313-87.567.313s-87.579-.132-87.579-.313,39.2-.313,87.579-.313S303.226,141.374,303.226,141.543Z" transform="translate(-127.164 -71.502)" fill="#263238"/><path d="M132.135,187.623c0,1.059-.758,1.7-2.022,1.7h-1.324v1.516h-.53V185.89h1.853C131.377,185.926,132.135,186.564,132.135,187.623Zm-.517,0c0-.794-.529-1.2-1.516-1.2h-1.312v2.407H130.1C131.088,188.85,131.617,188.429,131.617,187.623Z" transform="translate(-127.127 -62.421)" fill="#263238"/><path d="M135.157,188.371v2.262h-.481v-.578a1.384,1.384,0,0,1-1.276.614c-.842,0-1.36-.433-1.36-1.083s.373-1.047,1.432-1.047h1.2v-.229c0-.638-.349-.975-1.047-.975a1.913,1.913,0,0,0-1.2.433l-.229-.373a2.407,2.407,0,0,1,1.516-.505,1.324,1.324,0,0,1,1.444,1.48Zm-.505,1.2v-.614h-1.2c-.722,0-.963.289-.963.662s.349.7.939.7a1.2,1.2,0,0,0,1.227-.758Z" transform="translate(-126.36 -62.218)" fill="#263238"/><path d="M135.33,190.241l.229-.4a2.226,2.226,0,0,0,1.324.421c.71,0,1-.241,1-.614,0-.963-2.407-.2-2.407-1.673,0-.6.529-1.059,1.48-1.059a2.467,2.467,0,0,1,1.312.349l-.217.4a2,2,0,0,0-1.1-.313c-.674,0-.975.265-.975.614,0,1,2.407.253,2.407,1.673,0,.65-.566,1.059-1.54,1.059A2.491,2.491,0,0,1,135.33,190.241Z" transform="translate(-125.691 -62.211)" fill="#263238"/><path d="M138.2,190.241l.229-.4a2.2,2.2,0,0,0,1.324.421c.71,0,1-.241,1-.614,0-.963-2.407-.2-2.407-1.673,0-.6.529-1.059,1.48-1.059a2.467,2.467,0,0,1,1.312.349l-.217.4a2,2,0,0,0-1.1-.313c-.674,0-.975.265-.975.614,0,1,2.407.253,2.407,1.673,0,.65-.554,1.059-1.528,1.059A2.49,2.49,0,0,1,138.2,190.241Z" transform="translate(-125.107 -62.211)" fill="#263238"/><path d="M147.045,186.946l-1.432,3.682h-.469l-1.2-3.044-1.2,3.044h-.481l-1.4-3.718h.481l1.2,3.165,1.2-3.165h.433l1.2,3.165,1.2-3.165Z" transform="translate(-124.566 -62.213)" fill="#263238"/><path d="M146.2,188.809a1.889,1.889,0,1,1,1.9,1.889,1.829,1.829,0,0,1-1.9-1.889Zm3.273,0a1.384,1.384,0,1,0-1.372,1.444,1.348,1.348,0,0,0,1.372-1.444Z" transform="translate(-123.48 -62.211)" fill="#263238"/><path d="M152.059,186.922v.493h-.12a1.2,1.2,0,0,0-1.2,1.372v1.841h-.505V186.91h.481v.734A1.42,1.42,0,0,1,152.059,186.922Z" transform="translate(-122.661 -62.213)" fill="#263238"/><path d="M155.933,185.676v5.21h-.481v-.734a1.6,1.6,0,0,1-1.432.77,1.889,1.889,0,1,1,0-3.779,1.625,1.625,0,0,1,1.408.734V185.64Zm-.493,3.393a1.384,1.384,0,1,0-1.384,1.444,1.36,1.36,0,0,0,1.384-1.444Z" transform="translate(-122.274 -62.471)" fill="#263238"/><path d="M299.685,180.379a8.663,8.663,0,0,0,.987-.156,4.272,4.272,0,0,0,2.407-1.588,4.151,4.151,0,0,0,.794-1.949c.084-.77,0-1.661,0-2.6V163.653a4.38,4.38,0,0,0-1.444-3.742,4.139,4.139,0,0,0-1.961-.939,18.918,18.918,0,0,0-2.407-.06H269.277l-137.349.1a3.971,3.971,0,0,0-3.61,2.407,5.451,5.451,0,0,0-.313,2.322v12.479a3.947,3.947,0,0,0,2.407,3.61,4.982,4.982,0,0,0,2.25.337h48.507l61.755.06,41.623.108h11.323l-11.323.06-41.623.1-61.755.072H132.577a5.331,5.331,0,0,1-2.491-.385,4.585,4.585,0,0,1-2.744-4.127c0-3.261,0-6.558,0-9.867v-2.491a11.609,11.609,0,0,1,0-1.276,4.9,4.9,0,0,1,.325-1.3,4.633,4.633,0,0,1,4.248-2.8l137.349.1h28.772a17.808,17.808,0,0,1,2.407.084,4.452,4.452,0,0,1,2.118,1.011,4.645,4.645,0,0,1,1.5,3.971v10.433c0,.951,0,1.8-.06,2.623a4.381,4.381,0,0,1-.854,2.01,4.272,4.272,0,0,1-2.407,1.564A3.694,3.694,0,0,1,299.685,180.379Z" transform="translate(-127.318 -68.029)" fill="#263238"/><path d="M131.762,156.32v.457h-3.5V151.82h3.393v.457h-2.864v1.757h2.551v.409h-2.551v1.841Z" transform="translate(-127.127 -69.348)" fill="#263238"/><path d="M138.225,154.417v2.166h-.505v-2.118c0-.782-.4-1.2-1.071-1.2a1.2,1.2,0,0,0-1.2,1.336v1.961h-.505v-2.118c0-.782-.4-1.2-1.071-1.2a1.2,1.2,0,0,0-1.2,1.336v1.961h-.505v-3.718h.481v.674a1.516,1.516,0,0,1,1.36-.71,1.348,1.348,0,0,1,1.324.782,1.624,1.624,0,0,1,1.468-.782,1.408,1.408,0,0,1,1.432,1.637Z" transform="translate(-126.336 -69.154)" fill="#263238"/><path d="M141.187,154.241v2.31h-.481v-.59a1.4,1.4,0,0,1-1.276.626c-.842,0-1.36-.445-1.36-1.083s.361-1.059,1.432-1.059h1.2v-.2c0-.638-.361-.975-1.047-.975a1.913,1.913,0,0,0-1.2.433l-.229-.373a2.322,2.322,0,0,1,1.516-.505,1.324,1.324,0,0,1,1.444,1.42Zm-.505,1.2v-.614h-1.2c-.722,0-.951.289-.951.674s.349.7.939.7a1.2,1.2,0,0,0,1.215-.758Z" transform="translate(-125.133 -69.146)" fill="#263238"/><path d="M141.69,151.935a.373.373,0,1,1,.373.361.361.361,0,0,1-.373-.361Zm.12,1.2h.505v3.718h-.505Z" transform="translate(-124.397 -69.403)" fill="#263238"/><path d="M143.37,151.58h.493v5.247h-.493Z" transform="translate(-124.055 -69.398)" fill="#263238"/><path d="M299.685,218.284a8.643,8.643,0,0,0,.987-.156,4.271,4.271,0,0,0,2.407-1.588,4.151,4.151,0,0,0,.794-1.949c.084-.77,0-1.661,0-2.6V201.557a4.368,4.368,0,0,0-1.444-3.742,4.14,4.14,0,0,0-1.961-.939,18.932,18.932,0,0,0-2.407-.06H269.277l-137.349.1a3.971,3.971,0,0,0-3.61,2.407,5.451,5.451,0,0,0-.313,2.322v12.346a3.947,3.947,0,0,0,2.407,3.61,4.982,4.982,0,0,0,2.25.337h48.507l61.755.06,41.623.1,11.323.06H284.547l-41.623.1-61.755.072H132.577a5.331,5.331,0,0,1-2.491-.385,4.585,4.585,0,0,1-2.744-4.127c0-3.261,0-6.558,0-9.867v-2.491a11.608,11.608,0,0,1,0-1.276,4.9,4.9,0,0,1,.325-1.3,4.633,4.633,0,0,1,4.248-2.8l137.349.1h28.772a17.8,17.8,0,0,1,2.407.084,4.452,4.452,0,0,1,2.118,1.011,4.645,4.645,0,0,1,1.5,3.971v10.433c0,.951,0,1.805-.06,2.623a4.381,4.381,0,0,1-.854,2.01,4.272,4.272,0,0,1-2.407,1.564A3.692,3.692,0,0,1,299.685,218.284Z" transform="translate(-127.318 -60.351)" fill="#263238"/><path d="M140.679,205.91a2.01,2.01,0,1,1-2.01-2.01A2.01,2.01,0,0,1,140.679,205.91Z" transform="translate(-125.42 -58.758)" fill="#263238"/><circle cx="2.01" cy="2.01" r="2.01" transform="translate(20.542 145.142)" fill="#263238"/><circle cx="2.01" cy="2.01" r="2.01" transform="translate(29.796 145.142)" fill="#263238"/><path d="M163.789,205.91a2.01,2.01,0,1,1-2.01-2.01A2.01,2.01,0,0,1,163.789,205.91Z" transform="translate(-120.721 -58.758)" fill="#263238"/><path d="M171.479,205.91a2.01,2.01,0,1,1-2.01-2.01A2.01,2.01,0,0,1,171.479,205.91Z" transform="translate(-119.157 -58.758)" fill="#263238"/><path d="M179.169,205.91a2.01,2.01,0,1,1-2.01-2.01,2.01,2.01,0,0,1,2.01,2.01Z" transform="translate(-117.593 -58.758)" fill="#263238"/><path d="M186.859,205.91a2.01,2.01,0,1,1-2.01-2.01,2.01,2.01,0,0,1,2.01,2.01Z" transform="translate(-116.03 -58.758)" fill="#263238"/><path d="M194.549,205.91a2.01,2.01,0,1,1-2.01-2.01,2.01,2.01,0,0,1,2.01,2.01Z" transform="translate(-114.466 -58.758)" fill="#263238"/><circle cx="2.01" cy="2.01" r="2.01" transform="translate(85.318 145.142)" fill="#263238"/><path d="M211.339,205.91a2.01,2.01,0,1,1-2-2.01A2.009,2.009,0,0,1,211.339,205.91Z" transform="translate(-111.052 -58.759)" fill="#263238"/><path d="M299.685,258.371a8.661,8.661,0,0,0,.987-.156,4.272,4.272,0,0,0,2.407-1.588,4.152,4.152,0,0,0,.794-1.949c.084-.77,0-1.661,0-2.6V241.657a4.392,4.392,0,0,0-1.444-3.754,4.14,4.14,0,0,0-1.961-.939,21.549,21.549,0,0,0-2.407-.06H269.277l-137.337.217a3.971,3.971,0,0,0-3.61,2.407,5.452,5.452,0,0,0-.313,2.322v12.358a3.947,3.947,0,0,0,2.407,3.61,4.982,4.982,0,0,0,2.25.337H181.18l61.755.06,41.624.108,11.323.06H284.559l-41.624.1-61.852.18H132.577a5.5,5.5,0,0,1-2.491-.4,4.561,4.561,0,0,1-2.744-4.127V241.777a11.609,11.609,0,0,1,0-1.276,4.9,4.9,0,0,1,.325-1.3,4.621,4.621,0,0,1,4.248-2.792l137.349.084h28.772a17.808,17.808,0,0,1,2.407.084,4.368,4.368,0,0,1,2.118,1.023,4.621,4.621,0,0,1,1.5,3.971c0,1.36,0,2.659,0,3.887v6.534c0,.951,0,1.8-.06,2.623a4.381,4.381,0,0,1-.854,2.01,4.211,4.211,0,0,1-2.407,1.564A3.152,3.152,0,0,1,299.685,258.371Z" transform="translate(-127.318 -52.148)" fill="#263238"/><path d="M185.9,248.09h-1.2v1.468h-.818V248.09H180.56v-.59l3.056-3.911h.914l-2.924,3.766h2.3v-1.288h.794v1.288h1.2Z" transform="translate(-116.493 -50.688)" fill="#263238"/><path d="M189.892,247.766c0,1.035-.734,1.865-2.262,1.865a3.405,3.405,0,0,1-2.19-.734l.4-.674a2.612,2.612,0,0,0,1.781.65c.9,0,1.42-.421,1.42-1.071s-.421-1.1-1.8-1.1h-1.36l.313-3.117h3.369v.746h-2.647l-.168,1.637h.674C189.194,245.973,189.892,246.707,189.892,247.766Z" transform="translate(-115.5 -50.688)" fill="#263238"/><path d="M194.2,247.766c0,1.035-.734,1.865-2.262,1.865a3.406,3.406,0,0,1-2.19-.734l.4-.674a2.611,2.611,0,0,0,1.781.65c.9,0,1.42-.421,1.42-1.071s-.433-1.1-1.8-1.1h-1.36l.313-3.117h3.369v.746h-2.611l-.168,1.637h.674C193.5,245.973,194.2,246.707,194.2,247.766Z" transform="translate(-114.624 -50.688)" fill="#263238"/><path d="M198.512,247.766c0,1.035-.734,1.865-2.262,1.865a3.406,3.406,0,0,1-2.19-.734l.4-.674a2.612,2.612,0,0,0,1.781.65c.9,0,1.42-.421,1.42-1.071s-.421-1.1-1.805-1.1h-1.36l.313-3.117h3.369v.746h-2.647l-.168,1.637h.674C197.814,245.973,198.512,246.707,198.512,247.766Z" transform="translate(-113.747 -50.688)" fill="#263238"/><path d="M200.81,246.584c0-1.937,1.047-3.044,2.407-3.044s2.407,1.107,2.407,3.044-1.047,3.056-2.407,3.056S200.81,248.534,200.81,246.584Zm4.019,0c0-1.528-.65-2.286-1.576-2.286s-1.588.758-1.588,2.286.65,2.3,1.588,2.3S204.829,248.113,204.829,246.584Z" transform="translate(-112.375 -50.699)" fill="#263238"/><path d="M205.82,246.584c0-1.937,1.035-3.044,2.407-3.044s2.407,1.107,2.407,3.044-1.035,3.056-2.407,3.056S205.82,248.534,205.82,246.584Zm4.007,0c0-1.528-.65-2.286-1.576-2.286s-1.588.758-1.588,2.286.65,2.3,1.588,2.3,1.576-.77,1.576-2.3Z" transform="translate(-111.356 -50.699)" fill="#263238"/><path d="M210.82,246.584c0-1.937,1.035-3.044,2.407-3.044s2.407,1.107,2.407,3.044-1.035,3.056-2.407,3.056S210.82,248.534,210.82,246.584Zm4.019,0c0-1.528-.65-2.286-1.576-2.286s-1.588.758-1.588,2.286.65,2.3,1.588,2.3S214.839,248.113,214.839,246.584Z" transform="translate(-110.34 -50.699)" fill="#263238"/><path d="M215.82,246.584c0-1.937,1.047-3.044,2.407-3.044s2.407,1.107,2.407,3.044-1.047,3.056-2.407,3.056S215.82,248.534,215.82,246.584Zm4.019,0c0-1.528-.65-2.286-1.576-2.286s-1.588.758-1.588,2.286.65,2.3,1.588,2.3S219.839,248.113,219.839,246.584Z" transform="translate(-109.324 -50.699)" fill="#263238"/><path d="M227.38,243.59v.578l-2.407,5.391h-.9l2.407-5.222h-2.72v1.059h-.818v-1.8Z" transform="translate(-107.875 -50.688)" fill="#263238"/><path d="M231.892,243.59v.578l-2.407,5.391h-.9l2.407-5.222h-2.732v1.059h-.818v-1.8Z" transform="translate(-106.961 -50.688)" fill="#263238"/><path d="M236.42,243.59v.578l-2.407,5.391h-.9l2.407-5.222h-2.78v1.059h-.818v-1.8Z" transform="translate(-106.049 -50.688)" fill="#263238"/><path d="M240.922,243.59v.578l-2.407,5.391h-.9l2.407-5.222h-2.732v1.059h-.818v-1.8Z" transform="translate(-105.124 -50.688)" fill="#263238"/><path d="M247.885,247.712a1.938,1.938,0,0,1-2.118,1.889c-1.6,0-2.5-1.083-2.5-2.984a2.744,2.744,0,0,1,2.828-3.117,2.864,2.864,0,0,1,1.48.349l-.325.662a2.094,2.094,0,0,0-1.143-.277c-1.2,0-1.985.758-1.985,2.238a1.317,1.317,0,0,0,0,.217,1.985,1.985,0,0,1,1.709-.782,1.853,1.853,0,0,1,2.058,1.8Zm-.83,0a1.222,1.222,0,0,0-1.36-1.2,1.2,1.2,0,0,0-1.372,1.2c0,.614.493,1.143,1.42,1.143a1.2,1.2,0,0,0,1.312-1.059Z" transform="translate(-103.748 -50.707)" fill="#263238"/><path d="M252.535,247.712a1.937,1.937,0,0,1-2.118,1.889c-1.6,0-2.5-1.083-2.5-2.984a2.744,2.744,0,0,1,2.816-3.117,2.888,2.888,0,0,1,1.492.349l-.325.662a2.094,2.094,0,0,0-1.143-.277c-1.2,0-1.986.758-1.986,2.238a1.31,1.31,0,0,0,0,.217,1.985,1.985,0,0,1,1.709-.782,1.853,1.853,0,0,1,2.058,1.8Zm-.83,0a1.222,1.222,0,0,0-1.36-1.2,1.2,1.2,0,0,0-1.372,1.2c0,.614.493,1.143,1.408,1.143A1.2,1.2,0,0,0,251.7,247.8Z" transform="translate(-102.803 -50.707)" fill="#263238"/><path d="M257.185,247.712a1.937,1.937,0,0,1-2.118,1.889c-1.6,0-2.5-1.083-2.5-2.984a2.744,2.744,0,0,1,2.828-3.117,2.864,2.864,0,0,1,1.48.349l-.325.662a2.094,2.094,0,0,0-1.2-.277c-1.2,0-1.986.758-1.986,2.238a1.3,1.3,0,0,0,0,.217,1.985,1.985,0,0,1,1.709-.782,1.853,1.853,0,0,1,2.118,1.8Zm-.83,0a1.222,1.222,0,0,0-1.36-1.2,1.2,1.2,0,0,0-1.372,1.2c0,.614.493,1.143,1.408,1.143a1.2,1.2,0,0,0,1.324-1.059Z" transform="translate(-101.857 -50.707)" fill="#263238"/><path d="M261.835,247.712a1.937,1.937,0,0,1-2.118,1.889c-1.6,0-2.5-1.083-2.5-2.984a2.744,2.744,0,0,1,2.816-3.117,2.888,2.888,0,0,1,1.492.349l-.325.662a2.093,2.093,0,0,0-1.143-.277c-1.2,0-1.986.758-1.986,2.238a1.316,1.316,0,0,0,0,.217,1.986,1.986,0,0,1,1.709-.782,1.853,1.853,0,0,1,2.058,1.8Zm-.83,0a1.223,1.223,0,0,0-1.36-1.2,1.2,1.2,0,0,0-1.372,1.2c0,.614.493,1.143,1.408,1.143A1.2,1.2,0,0,0,261,247.8Z" transform="translate(-100.913 -50.707)" fill="#263238"/><path d="M138.476,166.068l-2.19,4.97a1.61,1.61,0,0,1-1.612,1.2,1.661,1.661,0,0,1-1.2-.421l.349-.614a1.119,1.119,0,0,0,.806.337c.385,0,.638-.181.854-.7l.144-.313-1.986-4.513h.842l1.588,3.61,1.552-3.61Z" transform="translate(-126.068 -66.461)" fill="#263238"/><path d="M138.09,168.363a2.407,2.407,0,1,1,2.407,2.31,2.262,2.262,0,0,1-2.407-2.31Zm3.875,0a1.528,1.528,0,1,0-1.516,1.588,1.48,1.48,0,0,0,1.516-1.588Z" transform="translate(-125.129 -66.494)" fill="#263238"/><path d="M147.43,166.06v4.512h-.77V169.9a1.841,1.841,0,0,1-1.54.734,1.781,1.781,0,0,1-1.937-1.973v-2.6H144v2.5c0,.89.445,1.336,1.2,1.336a1.324,1.324,0,0,0,1.372-1.5V166.06Z" transform="translate(-124.096 -66.453)" fill="#263238"/><path d="M150.721,166v.794h-.193a1.336,1.336,0,0,0-1.42,1.516v2.25h-.818V166.05h.782v.758A1.733,1.733,0,0,1,150.721,166Z" transform="translate(-123.055 -66.467)" fill="#263238"/><path d="M155.525,168.6h-3.67a1.54,1.54,0,0,0,1.637,1.324,1.721,1.721,0,0,0,1.312-.542l.445.53a2.3,2.3,0,0,1-1.781.734,2.262,2.262,0,0,1-2.407-2.31,2.226,2.226,0,0,1,2.274-2.31,2.178,2.178,0,0,1,2.226,2.334A1.761,1.761,0,0,0,155.525,168.6Zm-3.67-.59h2.9a1.456,1.456,0,0,0-2.9,0Z" transform="translate(-122.492 -66.461)" fill="#263238"/><path d="M163.5,167.986v2.6h-.818v-2.5c0-.891-.421-1.324-1.2-1.324a1.324,1.324,0,0,0-1.348,1.5v2.322h-.818v-2.5c0-.89-.421-1.324-1.2-1.324a1.324,1.324,0,0,0-1.36,1.5v2.322H156v-4.512h.794v.674a1.805,1.805,0,0,1,1.612-.746,1.661,1.661,0,0,1,1.564.842,2.046,2.046,0,0,1,1.745-.842,1.733,1.733,0,0,1,1.781,1.986Z" transform="translate(-121.487 -66.466)" fill="#263238"/><path d="M167.4,167.865v2.72h-.77v-.59a1.685,1.685,0,0,1-1.48.65c-1.023,0-1.673-.554-1.673-1.336s.469-1.324,1.817-1.324h1.288v-.156c0-.686-.4-1.1-1.2-1.1a2.262,2.262,0,0,0-1.432.493l-.349-.614a2.948,2.948,0,0,1,1.865-.59,1.685,1.685,0,0,1,1.937,1.841Zm-.818,1.348v-.638h-1.276c-.806,0-1.035.313-1.035.7s.373.734,1,.734a1.3,1.3,0,0,0,1.312-.794Z" transform="translate(-119.966 -66.464)" fill="#263238"/><path d="M168.16,164.991a.541.541,0,1,1,.538.541.541.541,0,0,1-.538-.541Zm.144,1.4h.866V170.9h-.818Z" transform="translate(-119.015 -66.78)" fill="#263238"/><path d="M170.54,164.56h.818v6.318h-.818Z" transform="translate(-118.531 -66.758)" fill="#263238"/><path d="M180.49,168.554c0,1.444-.554,2.334-1.516,2.334a.975.975,0,0,1-1.023-.818,1.817,1.817,0,0,1-1.612.818,2.19,2.19,0,0,1,0-4.368,1.889,1.889,0,0,1,1.564.722v-.686h.734v3.069c0,.445.229.614.493.614.493,0,.782-.614.782-1.685a3.129,3.129,0,0,0-3.381-3.189,3.309,3.309,0,0,0,0,6.618,3.611,3.611,0,0,0,1.637-.373l.192.541a4.272,4.272,0,0,1-1.829.4,3.875,3.875,0,1,1,0-7.737,3.682,3.682,0,0,1,3.959,3.742Zm-2.563.1a1.408,1.408,0,0,0-1.456-1.516,1.516,1.516,0,1,0,0,3.032,1.408,1.408,0,0,0,1.456-1.516Z" transform="translate(-118.144 -66.709)" fill="#263238"/><path d="M184.535,168.6h-3.67a1.54,1.54,0,0,0,1.637,1.324,1.685,1.685,0,0,0,1.3-.541l.457.529a2.3,2.3,0,0,1-1.781.734,2.262,2.262,0,0,1-2.407-2.31,2.226,2.226,0,0,1,2.274-2.31,2.178,2.178,0,0,1,2.226,2.334A1.755,1.755,0,0,0,184.535,168.6Zm-3.67-.59h2.9a1.456,1.456,0,0,0-2.9,0Z" transform="translate(-116.593 -66.461)" fill="#263238"/><path d="M192.509,167.986v2.6h-.818v-2.5c0-.891-.421-1.324-1.2-1.324a1.33,1.33,0,0,0-1.348,1.5v2.322h-.818v-2.5c0-.89-.433-1.324-1.2-1.324a1.324,1.324,0,0,0-1.36,1.5v2.322H185v-4.512h.794v.674a1.805,1.805,0,0,1,1.613-.746,1.661,1.661,0,0,1,1.564.842,2.046,2.046,0,0,1,1.745-.842,1.733,1.733,0,0,1,1.793,1.986Z" transform="translate(-115.591 -66.466)" fill="#263238"/><path d="M196.413,167.865v2.72h-.77v-.59a1.7,1.7,0,0,1-1.492.65c-1.023,0-1.661-.554-1.661-1.336s.469-1.324,1.817-1.324h1.288v-.156c0-.686-.4-1.1-1.2-1.1a2.262,2.262,0,0,0-1.432.493l-.349-.614a2.949,2.949,0,0,1,1.865-.59,1.685,1.685,0,0,1,1.937,1.841Zm-.818,1.348v-.638h-1.2c-.806,0-1.035.313-1.035.7s.373.734,1,.734A1.3,1.3,0,0,0,195.595,169.212Z" transform="translate(-114.067 -66.464)" fill="#263238"/><path d="M197.17,164.991a.542.542,0,1,1,.538.541.542.542,0,0,1-.538-.541Zm.144,1.4h.854V170.9h-.818Z" transform="translate(-113.116 -66.78)" fill="#263238"/><path d="M199.55,164.56h.818v6.318h-.818Z" transform="translate(-112.632 -66.758)" fill="#263238"/><path d="M201.49,169.468a.566.566,0,0,1,.578-.578.554.554,0,0,1,.566.578.566.566,0,0,1-.566.59.578.578,0,0,1-.578-.59Z" transform="translate(-112.238 -65.877)" fill="#263238"/><path d="M203.27,168.331a2.262,2.262,0,0,1,2.407-2.31,2.022,2.022,0,0,1,1.841.975l-.626.4a1.408,1.408,0,0,0-1.2-.65,1.588,1.588,0,1,0,0,3.177,1.408,1.408,0,0,0,1.2-.65l.626.4a2.046,2.046,0,0,1-1.841.975,2.262,2.262,0,0,1-2.407-2.31Z" transform="translate(-111.875 -66.462)" fill="#263238"/><path d="M207.53,168.363a2.407,2.407,0,1,1,2.407,2.31,2.262,2.262,0,0,1-2.407-2.31Zm3.875,0a1.528,1.528,0,1,0-1.516,1.588,1.48,1.48,0,0,0,1.516-1.588Z" transform="translate(-111.009 -66.494)" fill="#263238"/><path d="M220.169,167.983v2.6h-.818v-2.5c0-.891-.433-1.324-1.2-1.324a1.324,1.324,0,0,0-1.36,1.5v2.322h-.818v-2.5c0-.89-.421-1.324-1.2-1.324a1.33,1.33,0,0,0-1.348,1.5v2.322H212.6V166.07h.782v.674a1.841,1.841,0,0,1,1.552-.722,1.685,1.685,0,0,1,1.576.842,2.009,2.009,0,0,1,1.733-.842,1.745,1.745,0,0,1,1.925,1.962Z" transform="translate(-109.978 -66.463)" fill="#263238"/><path d="M137.79,271.628v.626h-3.61V267.2h3.61v.626h-2.852v1.54h2.539v.614h-2.539v1.637Z" transform="translate(-125.924 -45.887)" fill="#263238"/><path d="M140.416,272.047l-1.107-1.468-1.119,1.468h-.77l1.5-1.949-1.432-1.877h.77l1.047,1.384,1.047-1.384h.758L139.67,270.1l1.528,1.949Z" transform="translate(-125.266 -45.68)" fill="#263238"/><path d="M145.029,270.14A1.853,1.853,0,0,1,143.1,272.1a1.637,1.637,0,0,1-1.336-.626v1.974h-.7v-5.222h.662v.614a1.624,1.624,0,0,1,1.372-.65,1.853,1.853,0,0,1,1.925,1.949Zm-.7,0a1.288,1.288,0,1,0-1.288,1.348,1.2,1.2,0,0,0,1.288-1.348Z" transform="translate(-124.523 -45.686)" fill="#263238"/><path d="M144.94,267.317a.457.457,0,1,1,.453.457A.458.458,0,0,1,144.94,267.317Zm.12,1.2h.7v3.827h-.746Z" transform="translate(-123.736 -45.956)" fill="#263238"/><path d="M148.658,268.191v.674h-.168a1.2,1.2,0,0,0-1.2,1.3v1.9H146.6V268.24h.662v.65A1.444,1.444,0,0,1,148.658,268.191Z" transform="translate(-123.398 -45.687)" fill="#263238"/><path d="M151.965,269.738v2.31H151.3v-.481a1.408,1.408,0,0,1-1.2.553c-.866,0-1.42-.469-1.42-1.131s.4-1.119,1.54-1.119h1.1v-.132c0-.59-.337-.927-1.023-.927a1.949,1.949,0,0,0-1.2.409l-.289-.517a2.6,2.6,0,0,1,1.588-.493A1.377,1.377,0,0,1,151.965,269.738Zm-.7,1.143v-.517H150.2c-.686,0-.878.265-.878.59s.325.614.842.614A1.1,1.1,0,0,0,151.267,270.882Z" transform="translate(-122.976 -45.682)" fill="#263238"/><path d="M154.593,271.97a1.347,1.347,0,0,1-.83.265,1.095,1.095,0,0,1-1.2-1.2v-2.094h-.65v-.578h.65v-.83h.662v.83h1.1v.578h-1.1v2.07a.554.554,0,0,0,.59.638.842.842,0,0,0,.541-.181Z" transform="translate(-122.319 -45.82)" fill="#263238"/><path d="M154.62,267.317a.457.457,0,1,1,.453.457A.458.458,0,0,1,154.62,267.317Zm.12,1.2h.7v3.827h-.7Z" transform="translate(-121.768 -45.956)" fill="#263238"/><path d="M156,270.154a2,2,0,1,1,2,1.961,1.9,1.9,0,0,1-2-1.961Zm3.273,0a1.288,1.288,0,1,0-1.288,1.288A1.288,1.288,0,0,0,159.273,270.154Z" transform="translate(-121.487 -45.7)" fill="#263238"/><path d="M163.61,269.851v2.2h-.686v-2.118c0-.758-.385-1.119-1.035-1.119a1.131,1.131,0,0,0-1.2,1.263v1.974H160v-3.827h.674v.578a1.636,1.636,0,0,1,1.372-.614,1.48,1.48,0,0,1,1.564,1.661Z" transform="translate(-120.674 -45.686)" fill="#263238"/><path d="M165.51,267.2h2.13a2.539,2.539,0,1,1,0,5.054h-2.13Zm2.082,4.428a1.9,1.9,0,1,0,0-3.8h-1.36v3.8Z" transform="translate(-119.553 -45.889)" fill="#263238"/><path d="M173.335,269.738v2.31h-.662v-.481a1.408,1.408,0,0,1-1.2.553c-.866,0-1.42-.469-1.42-1.131s.4-1.119,1.54-1.119h1.1v-.132c0-.59-.337-.927-1.023-.927a1.949,1.949,0,0,0-1.2.409l-.289-.517a2.6,2.6,0,0,1,1.588-.493A1.377,1.377,0,0,1,173.335,269.738Zm-.7,1.143v-.517h-1.059c-.686,0-.891.265-.891.59s.325.614.854.614A1.083,1.083,0,0,0,172.637,270.882Z" transform="translate(-118.631 -45.682)" fill="#263238"/><path d="M177.19,268.22l-1.853,4.212c-.337.806-.782,1.059-1.36,1.059a1.456,1.456,0,0,1-.987-.349l.3-.529a.963.963,0,0,0,.686.289c.325,0,.542-.157.722-.59l.12-.277-1.685-3.815h.722l1.336,3.057,1.324-3.057Z" transform="translate(-118.032 -45.68)" fill="#263238"/><path d="M209.94,270.14a1.913,1.913,0,0,1,2.022-1.949,1.708,1.708,0,0,1,1.552.818l-.517.337a1.2,1.2,0,0,0-1.047-.541,1.348,1.348,0,0,0,0,2.683,1.2,1.2,0,0,0,1.047-.542l.517.325a1.685,1.685,0,0,1-1.552.83,1.913,1.913,0,0,1-2.022-1.961Z" transform="translate(-110.519 -45.686)" fill="#263238"/><path d="M217,268.22l-1.673,3.827h-.71l-1.673-3.827h.722l1.312,3.068,1.348-3.068Z" transform="translate(-109.909 -45.68)" fill="#263238"/><path d="M220.185,268.22l-1.685,3.827h-.7l-1.673-3.827h.722l1.312,3.068,1.336-3.068Z" transform="translate(-109.26 -45.68)" fill="#263238"/><path d="M136.4,276.23v5.054h-.71v-4.416H134.55v-.638Z" transform="translate(-125.849 -44.051)" fill="#263238"/><path d="M140.478,280.671v.626h-3.61v-.518l2.058-1.985c.529-.517.626-.83.626-1.143,0-.53-.361-.842-1.071-.842a1.552,1.552,0,0,0-1.288.554l-.493-.433a2.323,2.323,0,0,1,1.841-.758c1.059,0,1.733.541,1.733,1.4a2.034,2.034,0,0,1-.83,1.588l-1.54,1.492Z" transform="translate(-125.412 -44.064)" fill="#263238"/><path d="M143.635,275.38h.638l-2.407,6.8h-.626Z" transform="translate(-124.488 -44.224)" fill="#263238"/><path d="M148.706,279.8c0,.842-.626,1.54-1.913,1.54a2.84,2.84,0,0,1-1.853-.614l.325-.566a2.323,2.323,0,0,0,1.528.542c.758,0,1.2-.349,1.2-.9s-.385-.878-1.2-.878h-.4v-.505l1.264-1.552h-2.407v-.638h3.333v.493l-1.408,1.637C148.189,278.444,148.706,279.022,148.706,279.8Z" transform="translate(-123.736 -44.051)" fill="#263238"/><path d="M148.51,278.765c0-1.636.878-2.575,2.058-2.575s2.058.939,2.058,2.575-.878,2.587-2.058,2.587S148.51,280.414,148.51,278.765Zm3.393,0c0-1.288-.541-1.937-1.336-1.937s-1.336.65-1.336,1.937.541,1.95,1.336,1.95S151.9,280.065,151.9,278.765Z" transform="translate(-123.01 -44.059)" fill="#263238"/><path d="M210,278.765c0-1.636.878-2.575,2.058-2.575s2.058.939,2.058,2.575-.878,2.587-2.058,2.587S210,280.414,210,278.765Zm3.393,0c0-1.288-.553-1.937-1.336-1.937s-1.336.65-1.336,1.937.481,2.01,1.312,2.01,1.336-.71,1.336-2.01Z" transform="translate(-110.507 -44.059)" fill="#263238"/><path d="M213.86,278.765c0-1.636.878-2.575,2.058-2.575s2.058.939,2.058,2.575-.878,2.587-2.058,2.587S213.86,280.414,213.86,278.765Zm3.393,0c0-1.288-.542-1.937-1.336-1.937s-1.336.65-1.336,1.937.542,1.95,1.336,1.95S217.253,280.065,217.253,278.765Z" transform="translate(-109.722 -44.059)" fill="#263238"/><path d="M217.74,278.765c0-1.636.878-2.575,2.058-2.575s2.058.939,2.058,2.575-.878,2.587-2.058,2.587S217.74,280.414,217.74,278.765Zm3.393,0c0-1.288-.542-1.937-1.336-1.937s-1.336.65-1.336,1.937.542,1.95,1.336,1.95S221.133,280.065,221.133,278.765Z" transform="translate(-108.933 -44.059)" fill="#263238"/><path d="M179.587,89.129c0,1.973-1.456,3.189-3.815,3.189h-2.022V94.9H172.09V85.94h3.682C178.131,85.94,179.587,87.143,179.587,89.129Zm-1.685,0c0-1.131-.746-1.781-2.214-1.781h-1.937v3.61h1.937C177.156,90.91,177.9,90.26,177.9,89.129Z" transform="translate(-118.215 -82.744)" fill="#263238"/><path d="M185.346,92.823h-4.476l-.878,2.082H178.27L182.3,85.94h1.661L188,94.9h-1.757Zm-.542-1.3-1.7-3.923-1.673,3.923Z" transform="translate(-116.959 -82.744)" fill="#263238"/><path d="M190.926,91.74V94.9h-1.661V91.764L185.74,85.94h1.781l2.623,4.368,2.647-4.368h1.685Z" transform="translate(-115.44 -82.744)" fill="#263238"/><path d="M201.989,94.9V88.96l-2.948,4.922h-.746l-2.936-4.813v5.86H193.77V85.94h1.372l3.55,5.945,3.5-5.945h1.372V94.9Z" transform="translate(-113.807 -82.744)" fill="#263238"/><path d="M210.625,93.509v1.4H203.91V85.94h6.534v1.4h-4.874v2.286H209.9v1.36h-4.332v2.479Z" transform="translate(-111.745 -82.744)" fill="#263238"/><path d="M219,85.94V94.9H217.63l-4.946-6.017V94.9H211V85.94h1.372l4.946,6.017V85.94Z" transform="translate(-110.304 -82.744)" fill="#263238"/><path d="M221.652,87.348H218.68V85.94h7.605v1.408h-2.972V94.9h-1.661Z" transform="translate(-108.742 -82.744)" fill="#263238"/><path d="M225.34,93.983l.578-1.288a4.994,4.994,0,0,0,2.948.975c1.4,0,1.985-.493,1.985-1.2,0-1.937-5.319-.674-5.319-4,0-1.444,1.2-2.671,3.61-2.671a5.74,5.74,0,0,1,2.984.782l-.529,1.3a5.018,5.018,0,0,0-2.407-.71c-1.384,0-1.949.542-1.949,1.2,0,1.913,5.307.674,5.307,3.959,0,1.432-1.2,2.659-3.61,2.659A5.8,5.8,0,0,1,225.34,93.983Z" transform="translate(-107.388 -82.773)" fill="#263238"/></g><g transform="translate(959.747 344.825)"><path d="M305.314,168c-.191.513-4.634,41.221-4.634,41.221l17.172-3.094,4.4-33.64Z" transform="translate(-159.804 -148.701)" fill="#455a64"/><path d="M301.09,209.388l-1.29-.763,3.9-41.016,1.965.557Z" transform="translate(-160.215 -148.883)" fill="#263238"/><circle cx="0.792" cy="0.792" r="0.792" transform="translate(152.93 24.754)" fill="#263238"/><path d="M297.451,227.275l32.936,8.564-5.03-40.928h0l-.675-1.862-12.054-1.862,1.466-8.916a7.332,7.332,0,0,1,9-5.719l3.959,1.056a10.265,10.265,0,0,1,6.526,5.25c2.288,4.487,4.531,9.385,4.311,8.96h0l17.67,47.922a18.11,18.11,0,0,1-1.965,19.313c-5.69,7.332-19.43,2.244-25.912,1l-42.189-9.3Z" transform="translate(-166.885 -144.817)" fill="#c67761"/><path d="M210.137,281.985a22.554,22.554,0,0,1,.1-29.695l36-40.84,9.634,26.953c-.66.44-28.038,29.783-28.038,29.783L251.3,297.514a16.849,16.849,0,0,1,2.786,16.043l-1.056,4.326a10.368,10.368,0,0,1-14.327,6.98l-6.614-2.933a1.466,1.466,0,0,1-.6-2.038h0a1.379,1.379,0,0,1,1.173-.645h8.96a4.062,4.062,0,0,0,3.959-3.094h0Z" transform="translate(-204.612 -128.435)" fill="#c67761"/><path d="M217,246.57a13.2,13.2,0,0,1,3.153,2.684,8.886,8.886,0,0,1,2.522,3.314,16.014,16.014,0,0,1-3.065-2.772A10.412,10.412,0,0,1,217,246.57Z" transform="translate(-198.834 -112.054)" fill="#9b4e3d"/><path d="M222.85,524.572s36.968-117.46,37.76-121.273c.7-3.446-13.418-87.985-15.207-109.849l49.975,1.862v.411l21.248,1.173L297.564,537.124H274.6l2.288-79.7c-14.18,38.127-34.5,76.855-34.5,76.855Z" transform="translate(-196.105 -90.189)" fill="#c67761"/><path d="M259.06,442.173c0-.733.279-26.7.279-26.7s10.148-28.888,10.353-28.155S259.06,442.173,259.06,442.173Z" transform="translate(-179.217 -46.415)" fill="#9b4e3d"/><path d="M257.995,170.861c-2.654-3.666-8.667-3.417-12.054-.411s-4.561,7.816-4.693,12.347c-.117,4.209.176,9.224-3.211,11.731a36.667,36.667,0,0,1-4.6,2.17,8.4,8.4,0,0,0-4.253,7.332c0,2.229.909,4.81-.572,6.511a10.866,10.866,0,0,1-2.845,1.789,8.8,8.8,0,0,0-3.622,8.227,15.984,15.984,0,0,0,2.082,7.083s23.727-.235,34.519,0c0,0-.191-38.039-.748-56.78" transform="translate(-196.467 -148.629)" fill="#263238"/><path d="M281.117,224.561c-.073-2.669.719-13.286.719-13.286s9.9-.968,10.6-11.013.337-33.229.337-33.229l-17.89-9.224L255,172.987l1.994,51.676Z" transform="translate(-181.11 -153.453)" fill="#c67761"/><path d="M280.068,176.025a1.246,1.246,0,0,1-1.261,1.261,1.29,1.29,0,0,1,0-2.566,1.261,1.261,0,0,1,1.261,1.305Z" transform="translate(-170.544 -145.566)" fill="#263238"/><path d="M281.725,175.166c-.161.161-1.085-.66-2.434-.748s-2.361.572-2.508.381.1-.381.557-.689a3.236,3.236,0,0,1,3.93.279C281.681,174.77,281.8,175.093,281.725,175.166Z" transform="translate(-170.97 -146.101)" fill="#263238"/><path d="M270.172,175.91a1.276,1.276,0,0,1-1.276,1.276,1.29,1.29,0,0,1,0-2.566,1.276,1.276,0,0,1,1.276,1.29Z" transform="translate(-175.166 -145.613)" fill="#263238"/><path d="M271.523,175.053c-.161.161-1.085-.645-2.434-.733s-2.376.557-2.508.381.1-.4.543-.7a3.167,3.167,0,0,1,2.024-.513,3.241,3.241,0,0,1,1.921.807C271.465,174.657,271.611,174.98,271.523,175.053Z" transform="translate(-175.725 -146.149)" fill="#263238"/><path d="M273.2,186.432a7.788,7.788,0,0,1,2.214-.279c.352,0,.674,0,.748-.323a1.95,1.95,0,0,0-.191-1.1c-.279-.924-.572-1.877-.894-2.933a53.493,53.493,0,0,1-1.965-7.508,52.219,52.219,0,0,1,2.522,7.332c.293,1.012.587,1.98.851,2.933a2.2,2.2,0,0,1,.117,1.466.821.821,0,0,1-.587.5,2.141,2.141,0,0,1-.587,0A8.8,8.8,0,0,1,273.2,186.432Z" transform="translate(-172.663 -145.767)" fill="#263238"/><path d="M277.414,195.744a23.932,23.932,0,0,1-12.934-4.634s2.933,7.42,12.7,7.1Z" transform="translate(-176.689 -137.922)" fill="#9b4e3d"/><path d="M245.349,183.831c.1-.7-.1.777,0-.337h0a37.262,37.262,0,0,1,.645-4.062c5.558-20.911,23.551-24.636,27.114-24.592,3.8,0,14.664-.279,20.764,7.332a19.914,19.914,0,0,1,3.461,19.958h0l-15.823-2.859c1.173-3.945-.44-8.886-1.364-11.189l-.088-.088c-2.948,15.016-19.181,16.409-19.181,16.409l-.205,23.991C248.942,206.693,245.071,192.542,245.349,183.831Z" transform="translate(-185.625 -154.839)" fill="#263238"/><path d="M252.71,182.483a6.423,6.423,0,0,1,1.466.1,21.472,21.472,0,0,0,3.842,0,20.4,20.4,0,0,0,5.514-1.2,19.064,19.064,0,0,0,10.265-8.8,20.531,20.531,0,0,0,2.068-5.264,43.771,43.771,0,0,0,.689-5.22,4.677,4.677,0,0,1,.176,1.466,17.509,17.509,0,0,1-.337,3.915,20.017,20.017,0,0,1-1.98,5.484,19.43,19.43,0,0,1-16.395,10.192,16.54,16.54,0,0,1-3.9-.279A4.5,4.5,0,0,1,252.71,182.483Z" transform="translate(-182.178 -151.453)" fill="#263238"/><path d="M258.375,185.211c.1-1.466.792-5.118.293-6.54s-2.082-1.745-3.827-1.73a3.915,3.915,0,0,0-3.769,3.754,5.118,5.118,0,0,0,2.126,4.4,5.778,5.778,0,0,0,5.015.293" transform="translate(-182.945 -144.531)" fill="#c67761"/><path d="M255.767,182.537c0-.1-.5.117-1.129-.1a2.053,2.053,0,0,1-1.305-1.965A1.188,1.188,0,0,1,254.682,179c.689.088,1.158.279,1.2.161s-.293-.425-1.1-.675a1.774,1.774,0,0,0-1.466.249,2.068,2.068,0,0,0-.675,1.76,2.756,2.756,0,0,0,.528,1.7,2.082,2.082,0,0,0,1.305.748C255.415,183.065,255.841,182.6,255.767,182.537Z" transform="translate(-182.215 -143.837)" fill="#9b4e3d"/><path d="M252.139,182.545a6.084,6.084,0,0,0-.191,1.628,2.272,2.272,0,0,0,4.194,1,2.2,2.2,0,0,0,.337-1.584,4.226,4.226,0,0,0-.6-1.466c.088,0,.777.249,1.129,1.466a2.625,2.625,0,0,1-.264,2.053,2.845,2.845,0,0,1-4.531.616,2.64,2.64,0,0,1-.792-1.906C251.435,182.985,252.095,182.472,252.139,182.545Z" transform="translate(-182.78 -142.115)" fill="#455a64"/><path d="M247.935,183.23a4.736,4.736,0,0,1-1.378-1.76,12.772,12.772,0,0,1-.792-10.485,4.546,4.546,0,0,1,1.114-1.936,20.692,20.692,0,0,0-1.1,7.2,21.13,21.13,0,0,0,2.156,6.98Z" transform="translate(-185.777 -148.211)" fill="#455a64"/><path d="M220.08,223.463a4.042,4.042,0,0,1-.4-.66,7.683,7.683,0,0,1-.587-2.112,8.8,8.8,0,0,1,.308-3.475,8.065,8.065,0,0,1,2.508-3.813c1.32-1.173,3.226-1.686,4.4-3.094a3.9,3.9,0,0,0,.821-2.64,26.216,26.216,0,0,0-.44-3.182,8.037,8.037,0,0,1,.1-3.534,7.846,7.846,0,0,1,1.921-3.167,25.237,25.237,0,0,1,6.262-4.253,11.849,11.849,0,0,0,5.25-4.854,16.673,16.673,0,0,0,.792-6.731,14.987,14.987,0,0,1,4.4-10.9,10.969,10.969,0,0,1,7.332-2.933,8.8,8.8,0,0,1,2.17.293,2.347,2.347,0,0,1,.719.279,14.182,14.182,0,0,0-2.933-.264,10.881,10.881,0,0,0-7.009,3.035,14.664,14.664,0,0,0-4.091,10.5,17.2,17.2,0,0,1-.821,7.039,12.465,12.465,0,0,1-5.543,5.206,25.12,25.12,0,0,0-6.1,4.106,6.408,6.408,0,0,0-1.862,6.086,24.613,24.613,0,0,1,.411,3.27,4.546,4.546,0,0,1-1.012,3.065c-1.466,1.584-3.387,2.024-4.6,3.094a7.8,7.8,0,0,0-2.434,3.593,8.8,8.8,0,0,0-.425,3.314A12.391,12.391,0,0,0,220.08,223.463Z" transform="translate(-197.881 -148.645)" fill="#263238"/><path d="M270.7,183.2a2.787,2.787,0,0,1,2.141,0,2.17,2.17,0,0,1,1.261,1.686,1.789,1.789,0,0,1-1,1.8,2.258,2.258,0,0,1-2.038-.235,2.39,2.39,0,0,1-1.217-1.466,1.466,1.466,0,0,1,.865-1.642" transform="translate(-174.198 -141.712)" fill="#9b4e3d"/><path d="M269.782,181.85c.22,0,.66,1.818,2.4,3.109a11.732,11.732,0,0,0,3.666,1.466c0,.1-.455.264-1.246.235a5.352,5.352,0,0,1-2.933-1.041,5.279,5.279,0,0,1-1.818-2.464C269.664,182.363,269.694,181.865,269.782,181.85Z" transform="translate(-174.248 -142.241)" fill="#263238"/><path d="M253.784,205.791c-5.7,1.466-8.9,3.226-17.406,12.45L213.59,243.83,244.9,266.6,257.714,249.2l2.728,38.127s-7.1,8.71-13.388,32.95c-5.088,19.606-5.558,39.593-7.009,54.8l-3.857,95.742,89.158,2.434S322,444.9,323.6,384.5c.909-34.343-4.649-68.687-7.655-78.189l-4.59-24.856a22.656,22.656,0,0,1,3.9-12.816c7.229-10.177,2.082-22.2,2.082-22.2l23.8,8.8,15.705-35.429-32.481-12.245c-11.731-4.854-25.706-4.15-25.706-4.15l-24.738-.293s-11.614-.895-20.119,2.654" transform="translate(-200.424 -132.366)" fill="#1361a2"/><path d="M281.611,461.417v-2.17L258.06,458.22v8.916l1.466.1c6.467.367,32.892,1.466,37.232.161C301.51,465.963,281.611,461.417,281.611,461.417Z" transform="translate(-179.683 -13.338)" fill="#1361a2"/><g transform="translate(78.406 446.889)" opacity="0.5"><path d="M266.483,466.336a8.036,8.036,0,0,0-2.933-5,7.875,7.875,0,0,0-5.47-1.73v6.555Z" transform="translate(-258.08 -459.588)" fill="#fff"/></g><g transform="translate(78.318 450.646)" opacity="0.5"><path d="M291.352,462.15s6.966,2.024,6.1,3.182-27.642,1.041-39.432,0V464.8l31.205.381S289.988,462.194,291.352,462.15Z" transform="translate(-258.02 -462.15)" fill="#fff"/></g><path d="M257.79,463.93h.411l1.158.073,4.253.205c3.593.132,8.579.264,14.063.293s10.47,0,14.063-.176l4.267-.161h-4.267c-3.593.073-8.564.117-14.063.1s-10.456-.132-14.048-.22l-4.267-.1H258.2Z" transform="translate(-179.809 -10.674)" fill="#263238"/><path d="M279.326,465.611a9.984,9.984,0,0,1,.806-2.038,10.511,10.511,0,0,1,1.466-1.613,3.2,3.2,0,0,0-1.7,1.466,3.124,3.124,0,0,0-.572,2.185Z" transform="translate(-169.773 -11.593)" fill="#263238"/><path d="M274.61,462.621a2.909,2.909,0,0,0,.748-.894c.337-.528.572-1.012.5-1.056s-.4.367-.733.895A2.582,2.582,0,0,0,274.61,462.621Z" transform="translate(-171.964 -12.196)" fill="#263238"/><path d="M273.321,461.768a3.886,3.886,0,0,0,.836-.543c.411-.352.689-.7.631-.763s-.411.191-.821.543S273.277,461.709,273.321,461.768Z" transform="translate(-172.567 -12.295)" fill="#263238"/><path d="M272.51,459.887a2.933,2.933,0,0,0,1.217.161c.689,0,1.232,0,1.232-.132a5.184,5.184,0,0,0-2.449-.029Z" transform="translate(-172.943 -12.629)" fill="#263238"/><path d="M272.23,458.77a2.361,2.361,0,0,0,1.364.411,2.4,2.4,0,0,0,1.466-.191,8.557,8.557,0,0,0-1.378-.088A8.8,8.8,0,0,0,272.23,458.77Z" transform="translate(-173.074 -13.081)" fill="#263238"/><path d="M275.16,461.31a4.4,4.4,0,0,0,1.466,0,8.468,8.468,0,0,0,1.6-.337,4.753,4.753,0,0,0,.924-.381.9.9,0,0,0,.381-.469.6.6,0,0,0-.235-.6,2.757,2.757,0,0,0-3.417.806,2.845,2.845,0,0,0-.5,1c0,.249,0,.4,0,.411a3.916,3.916,0,0,1,.689-1.29,2.6,2.6,0,0,1,1.29-.821,2.3,2.3,0,0,1,1.789.117c.235.176.147.469-.117.616a4.4,4.4,0,0,1-.85.367,10.089,10.089,0,0,1-1.554.4C275.732,461.266,275.16,461.266,275.16,461.31Z" transform="translate(-171.707 -12.864)" fill="#263238"/><path d="M276.054,461.628a1.6,1.6,0,0,0,.176-1.041,2.551,2.551,0,0,0-.411-1.1,1.466,1.466,0,0,0-1.246-.777.586.586,0,0,0-.469.689,1.745,1.745,0,0,0,.249.674,4.019,4.019,0,0,0,.719.909,2.127,2.127,0,0,0,.85.616,8.45,8.45,0,0,1-.7-.748,4.679,4.679,0,0,1-.63-.909c-.205-.308-.352-.88,0-.953s.763.337,1,.645a2.436,2.436,0,0,1,.411.983,6.652,6.652,0,0,1,.059,1.012Z" transform="translate(-172.205 -13.109)" fill="#263238"/><path d="M258.14,459.613s.66,0,1.73.073a7.332,7.332,0,0,1,6.115,4.913c.352,1,.381,1.672.44,1.672a1.321,1.321,0,0,0,0-.469,6.34,6.34,0,0,0-.249-1.276,7.141,7.141,0,0,0-6.291-5.044,5.871,5.871,0,0,0-1.29,0A1.467,1.467,0,0,0,258.14,459.613Z" transform="translate(-179.646 -12.766)" fill="#263238"/><path d="M265.83,462.67a13.633,13.633,0,0,0,3.417.323,13.2,13.2,0,0,0,3.431-.293c0-.073-1.54,0-3.431,0S265.83,462.582,265.83,462.67Z" transform="translate(-176.059 -11.277)" fill="#263238"/><path d="M262.7,462.622s.117.337.279.689.235.66.323.645.117-.367-.073-.763S262.744,462.578,262.7,462.622Z" transform="translate(-177.519 -11.287)" fill="#263238"/><path d="M261.52,461.154a1.717,1.717,0,0,0,.337.543c.235.249.484.411.543.352s-.1-.293-.337-.543S261.579,461.1,261.52,461.154Z" transform="translate(-178.069 -11.975)" fill="#263238"/><path d="M259.841,460.51c0,.088.323.088.66.205s.6.308.66.249-.132-.367-.557-.513S259.811,460.436,259.841,460.51Z" transform="translate(-178.853 -12.328)" fill="#263238"/><path d="M258.63,460.165c0,.073.117.191.308.279s.367.073.4,0-.1-.191-.293-.264S258.659,460.092,258.63,460.165Z" transform="translate(-179.417 -12.453)" fill="#263238"/><path d="M244.088,462.993l.88-1.965L223.91,450.44l-3.71,8.095,1.29.689c5.734,2.933,29.328,14.825,33.889,15.412C260.365,475.252,244.088,462.993,244.088,462.993Z" transform="translate(-197.341 -16.966)" fill="#1361a2"/><g transform="translate(23.02 435.219)" opacity="0.5"><path d="M227.965,461.294a8.183,8.183,0,0,0-.66-5.866,7.86,7.86,0,0,0-4.3-3.8l-2.7,5.954Z" transform="translate(-220.31 -451.63)" fill="#fff"/></g><g transform="translate(22.859 441.128)" opacity="0.5"><path d="M251.9,466.849s5.528,4.707,4.253,5.4-25.633-10.353-35.957-16.131l.249-.455,28.316,13.124S250.7,466.336,251.9,466.849Z" transform="translate(-220.2 -455.66)" fill="#fff"/></g><path d="M220.15,455.52l.337.205,1.026.543,3.813,1.921c3.211,1.6,7.7,3.754,12.7,6.027s9.576,4.238,12.9,5.6l3.959,1.6,1.07.425a1.461,1.461,0,0,0,.4.117l-.367-.176-1.07-.469L251,469.642c-3.3-1.466-7.86-3.4-12.86-5.675s-9.488-4.4-12.729-5.954l-3.842-1.789-1.056-.5Z" transform="translate(-197.365 -14.597)" fill="#263238"/><path d="M239.57,465.562a9.665,9.665,0,0,1,1.569-1.466,9.974,9.974,0,0,1,1.994-.895,3.285,3.285,0,0,0-2.156.66A3.109,3.109,0,0,0,239.57,465.562Z" transform="translate(-188.307 -11.016)" fill="#263238"/><path d="M236.271,461.084c0,.073.5-.161,1.041-.513s.924-.689.88-.748-.5.161-1.041.513S236.227,461.025,236.271,461.084Z" transform="translate(-189.847 -12.594)" fill="#263238"/><path d="M235.37,459.716c0,.088.469,0,.983-.161s.909-.352.895-.425-.469,0-.982.161S235.341,459.642,235.37,459.716Z" transform="translate(-190.266 -12.927)" fill="#263238"/><path d="M235.25,457.81a3.046,3.046,0,0,0,1.041.645,2.714,2.714,0,0,0,1.173.4,5.266,5.266,0,0,0-1.041-.645A2.713,2.713,0,0,0,235.25,457.81Z" transform="translate(-190.322 -13.529)" fill="#263238"/><path d="M235.43,456.73a2.523,2.523,0,0,0,1.085.924,2.361,2.361,0,0,0,1.349.411,7.828,7.828,0,0,0-1.217-.66,6.79,6.79,0,0,0-1.217-.674Z" transform="translate(-190.238 -14.033)" fill="#263238"/><path d="M237.345,459.948a4.21,4.21,0,0,0,1.364.6,8.551,8.551,0,0,0,1.613.352,5.453,5.453,0,0,0,1,0,.791.791,0,0,0,.528-.279.586.586,0,0,0,0-.631,2.742,2.742,0,0,0-3.446-.675,2.639,2.639,0,0,0-.865.7.881.881,0,0,0-.205.352,4.312,4.312,0,0,1,1.159-.88,2.741,2.741,0,0,1,1.466-.235,2.3,2.3,0,0,1,1.584.85c.147.264,0,.484-.367.513a4.728,4.728,0,0,1-.909,0,10.023,10.023,0,0,1-1.584-.279C237.887,460.139,237.359,459.9,237.345,459.948Z" transform="translate(-189.352 -12.983)" fill="#263238"/><path d="M238.009,460.833a1.716,1.716,0,0,0,.587-.88,2.346,2.346,0,0,0,0-1.173,1.466,1.466,0,0,0-.821-1.217c-.337-.1-1.114.572-1.173.836s.4.117.425.323a4.4,4.4,0,0,0,.264,1.129,2.053,2.053,0,0,0,.543.909,7,7,0,0,1-.352-.968,6.514,6.514,0,0,1-.205-1.085c0-.381,0-.953.425-.865s.557.631.645,1a2.523,2.523,0,0,1,0,1.056,5.262,5.262,0,0,1-.337.938Z" transform="translate(-189.694 -13.649)" fill="#263238"/><path d="M222.25,451.672a9.81,9.81,0,0,1,1.554.763,7.507,7.507,0,0,1,2.786,2.933,7.332,7.332,0,0,1,.777,4c-.088,1.07-.337,1.7-.279,1.716a1.656,1.656,0,0,0,.191-.44,6.03,6.03,0,0,0,.293-1.246,7.332,7.332,0,0,0-.719-4.165,7.156,7.156,0,0,0-2.933-3.021,6.338,6.338,0,0,0-1.173-.513A1.822,1.822,0,0,0,222.25,451.672Z" transform="translate(-196.385 -16.394)" fill="#263238"/><path d="M228,457.652a13.2,13.2,0,0,0,2.933,1.7,12.71,12.71,0,0,0,3.241,1.129c0-.073-1.466-.616-3.123-1.393S228,457.578,228,457.652Z" transform="translate(-193.703 -13.605)" fill="#263238"/><path d="M225.16,456.331c-.073,0,0,.352,0,.733v.733a1.043,1.043,0,0,0,.264-.733C225.424,456.609,225.234,456.3,225.16,456.331Z" transform="translate(-195.043 -14.22)" fill="#263238"/><path d="M224.7,454.511c-.073,0,0,.308.073.631s.279.572.352.543,0-.308-.088-.645S224.773,454.481,224.7,454.511Z" transform="translate(-195.257 -15.069)" fill="#263238"/><path d="M223.43,453.212c0,.073.264.205.528.455s.411.528.484.5,0-.4-.293-.7S223.43,453.138,223.43,453.212Z" transform="translate(-195.835 -15.691)" fill="#263238"/><path d="M222.46,452.414a.59.59,0,0,0,.161.381c.161.161.308.22.367.161s0-.22-.161-.367S222.519,452.37,222.46,452.414Z" transform="translate(-196.287 -16.051)" fill="#263238"/><path d="M322.306,223.252a13.492,13.492,0,0,1-3.314-3.094,13.9,13.9,0,0,1-2.742-3.607,14.093,14.093,0,0,1,3.314,3.094,13.638,13.638,0,0,1,2.742,3.607Z" transform="translate(-152.542 -126.056)" fill="#9b4e3d"/><path d="M324.626,208.828a4.621,4.621,0,0,1-.924.073l-2.64.073-9.693.117-32.026.117-32.012-.117-9.708-.117-2.64-.073a4.621,4.621,0,0,1-.924-.073,3.549,3.549,0,0,1,.924,0l2.64-.073,9.708-.132,32.012-.1,32.026.1,9.693.132,2.64.073A3.549,3.549,0,0,1,324.626,208.828Z" transform="translate(-190.877 -129.802)" fill="#263238"/><path d="M348.942,218.481a8.535,8.535,0,0,1-1.261,0l-3.622.073-13.3.117-43.875.117-43.9-.117-13.3-.117-3.607-.073a8.28,8.28,0,0,1-1.261,0,6.378,6.378,0,0,1,1.261-.073l3.607-.073,13.3-.132,43.9-.1,43.875.1,13.3.132,3.622.073a6.541,6.541,0,0,1,1.261.073Z" transform="translate(-195.191 -125.333)" fill="#263238"/><path d="M343.745,229.983a8.8,8.8,0,0,1-1.305.073l-3.754.073-13.8.117-45.532.117-45.547-.117-13.8-.1-3.754-.073A9.123,9.123,0,0,1,214.95,230a7,7,0,0,1,1.305,0l3.754-.073,13.8-.132,45.547-.1,45.532.1,13.8.132,3.754.073a6.816,6.816,0,0,1,1.305-.015Z" transform="translate(-199.79 -119.927)" fill="#263238"/><path d="M303.744,241.841a13.053,13.053,0,0,1-2.346.147l-6.394.117c-5.4,0-12.846.117-21.072.117s-15.691,0-21.072-.117l-6.394-.117a13.053,13.053,0,0,1-2.346-.147,13.053,13.053,0,0,1,2.346-.147l6.394-.117c5.382,0,12.846-.117,21.072-.117s15.676,0,21.072.117l6.394.117A13.053,13.053,0,0,1,303.744,241.841Z" transform="translate(-186.185 -114.438)" fill="#263238"/><path d="M297.085,253.421a9.8,9.8,0,0,1-2.038.147l-5.572.117c-4.693.073-11.189.117-18.359.117s-13.682,0-18.374-.117l-5.572-.117a9.8,9.8,0,0,1-2.038-.147,9.792,9.792,0,0,1,2.038-.147l5.572-.117c4.693-.073,11.189-.117,18.374-.117s13.667,0,18.359.117l5.572.117a9.792,9.792,0,0,1,2.038.147Z" transform="translate(-185.714 -109.037)" fill="#263238"/><path d="M300.523,247.951a11.409,11.409,0,0,1-2.2.147l-5.968.132c-5.044,0-12.01.1-19.709.1s-14.664,0-19.723-.1l-5.968-.132a11.319,11.319,0,0,1-2.185-.147,13.069,13.069,0,0,1,2.185-.147l5.968-.117c5.044-.073,12.025-.117,19.723-.117s14.664,0,19.709.117l5.968.117a13.2,13.2,0,0,1,2.2.147Z" transform="translate(-185.882 -111.588)" fill="#263238"/><path d="M304.582,236.121a15.6,15.6,0,0,1-2.39.147l-6.511.117c-5.514.073-13.11.117-21.5.117s-16.013,0-21.512-.117l-6.511-.117a15.6,15.6,0,0,1-2.39-.147,13.522,13.522,0,0,1,2.39-.147l6.511-.132c5.5,0,13.11-.1,21.512-.1s15.984,0,21.5.1l6.511.132a13.522,13.522,0,0,1,2.39.147Z" transform="translate(-186.348 -117.106)" fill="#263238"/><path d="M252.884,236.061a27.359,27.359,0,0,1-4.737.279c-2.933.073-6.965.1-11.438.1s-8.505,0-11.423-.1a27.359,27.359,0,0,1-4.737-.279,30.694,30.694,0,0,1,4.737-.264c2.933,0,6.965-.117,11.423-.117s8.52,0,11.438.117A30.694,30.694,0,0,1,252.884,236.061Z" transform="translate(-197.178 -117.134)" fill="#263238"/><path d="M307.179,235.441a84.118,84.118,0,0,1-16,0,84.111,84.111,0,0,1,16,0Z" transform="translate(-164.235 -117.423)" fill="#263238"/><path d="M346.472,224.008a12.557,12.557,0,0,1-1.29.073h-3.7l-13.579.117-44.814.117L238.28,224.2l-13.579-.117h-3.7a12.409,12.409,0,0,1-1.276-.073,7.229,7.229,0,0,1,1.276-.088h3.7l13.579-.117,44.814-.1,44.814.1,13.579.117h3.7a7.331,7.331,0,0,1,1.291.088Z" transform="translate(-197.561 -122.721)" fill="#263238"/><path d="M344.509,213.248a7.424,7.424,0,0,1-1.173,0l-3.358.073-12.362.117-40.766.117-40.781-.117-12.347-.117-3.373-.073a7.083,7.083,0,0,1-1.158,0,5.439,5.439,0,0,1,1.158-.073h3.373l12.347-.132,40.781-.1,40.766.1,12.362.132h3.358a5.677,5.677,0,0,1,1.173.073Z" transform="translate(-193.148 -127.74)" fill="#263238"/></g></g></g></svg>